<?xml version="1.0" encoding="UTF-8"?>
<!DOCTYPE svg PUBLIC "-//W3C//DTD SVG 1.1//EN" "http://www.w3.org/Graphics/SVG/1.1/DTD/svg11.dtd">
<svg xmlns="http://www.w3.org/2000/svg" version="1.1" width="127px" height="117px" style="shape-rendering:geometricPrecision; text-rendering:geometricPrecision; image-rendering:optimizeQuality; fill-rule:evenodd; clip-rule:evenodd" xmlns:xlink="http://www.w3.org/1999/xlink">
<g><path style="opacity:0.498" fill="#fbf2ca" d="M 77.5,10.5 C 80.6239,12.1258 83.2905,14.2925 85.5,17C 83.3281,19.1719 81.1614,21.3386 79,23.5C 76.7669,21.2669 74.6003,19.1003 72.5,17C 74.2662,14.8188 75.9329,12.6521 77.5,10.5 Z"/></g>
<g><path style="opacity:1" fill="#f0d788" d="M 78.5,12.5 C 82.072,15.0196 82.2387,17.6863 79,20.5C 77.0986,19.4645 75.2652,18.2978 73.5,17C 75.6175,15.9509 77.2842,14.4509 78.5,12.5 Z"/></g>
<g><path style="opacity:1" fill="#502f25" d="M 69.5,18.5 C 70.5792,22.1346 70.5792,25.8013 69.5,29.5C 63.8333,29.5 58.1667,29.5 52.5,29.5C 52.7373,28.209 52.404,27.209 51.5,26.5C 48.316,22.5373 49.1493,19.5373 54,17.5C 59.0717,18.4714 64.2384,18.8047 69.5,18.5 Z"/></g>
<g><path style="opacity:0.686" fill="#f4ebc3" d="M 41.5,19.5 C 44.1142,19.2771 45.7809,20.4438 46.5,23C 44.7397,25.4825 42.573,25.9825 40,24.5C 39.3872,22.5048 39.8872,20.8381 41.5,19.5 Z"/></g>
<g><path style="opacity:1" fill="#f5bb62" d="M 66.5,23.5 C 63.0381,22.5184 59.3714,22.185 55.5,22.5C 55.33,23.8221 55.6634,24.9887 56.5,26C 59.8168,26.4983 63.1501,26.665 66.5,26.5C 62.7016,27.4834 58.7016,27.8168 54.5,27.5C 53.8902,26.609 53.5569,25.609 53.5,24.5C 53.5,23.5 53.5,22.5 53.5,21.5C 58.2137,21.1734 62.8804,21.5067 67.5,22.5C 67.3764,23.1067 67.0431,23.44 66.5,23.5 Z"/></g>
<g><path style="opacity:1" fill="#fbb942" d="M 66.5,23.5 C 66.5,24.5 66.5,25.5 66.5,26.5C 63.1501,26.665 59.8168,26.4983 56.5,26C 55.6634,24.9887 55.33,23.8221 55.5,22.5C 59.3714,22.185 63.0381,22.5184 66.5,23.5 Z"/></g>
<g><path style="opacity:0.639" fill="#978185" d="M 69.5,18.5 C 70.1174,18.6107 70.6174,18.944 71,19.5C 71.7284,22.2305 71.5617,24.8971 70.5,27.5C 71.6119,28.2652 72.2786,29.2652 72.5,30.5C 71.609,29.8902 70.609,29.5569 69.5,29.5C 70.5792,25.8013 70.5792,22.1346 69.5,18.5 Z"/></g>
<g><path style="opacity:1" fill="#ce9b5e" d="M 54.5,27.5 C 58.7016,27.8168 62.7016,27.4834 66.5,26.5C 66.5,25.5 66.5,24.5 66.5,23.5C 67.0431,23.44 67.3764,23.1067 67.5,22.5C 62.8804,21.5067 58.2137,21.1734 53.5,21.5C 53.5,22.5 53.5,23.5 53.5,24.5C 52.5655,23.4324 52.2322,22.099 52.5,20.5C 57.8333,20.5 63.1667,20.5 68.5,20.5C 68.7076,22.9201 68.3742,25.2534 67.5,27.5C 63.0162,28.8111 58.6829,28.8111 54.5,27.5 Z"/></g>
<g><path style="opacity:0.443" fill="#bdb3b9" d="M 72.5,30.5 C 73.9302,32.4547 73.5969,34.1214 71.5,35.5C 72.038,33.8828 72.3713,32.2161 72.5,30.5 Z"/></g>
<g><path style="opacity:0.431" fill="#b8a9ad" d="M 51.5,26.5 C 52.404,27.209 52.7373,28.209 52.5,29.5C 49.9162,30.0483 48.9162,31.715 49.5,34.5C 48.3871,33.0536 48.2204,31.3869 49,29.5C 50.417,28.9221 51.2504,27.9221 51.5,26.5 Z"/></g>
<g><path style="opacity:0.439" fill="#fbf3d4" d="M 41.5,33.5 C 49.8129,35.0876 50.4795,38.0876 43.5,42.5C 38.1965,40.2885 37.5298,37.2885 41.5,33.5 Z"/></g>
<g><path style="opacity:0.871" fill="#9b9198" d="M 81.5,35.5 C 78.7273,36.6572 75.7273,37.3239 72.5,37.5C 75.1709,35.8819 78.1709,35.2153 81.5,35.5 Z"/></g>
<g><path style="opacity:1" fill="#edd88e" d="M 41.5,35.5 C 44.5,35.1667 45.8333,36.5 45.5,39.5C 43.8333,39.5 42.1667,39.5 40.5,39.5C 40.4326,38.0413 40.7659,36.7079 41.5,35.5 Z"/></g>
<g><path style="opacity:1" fill="#6fb2d6" d="M 94.5,37.5 C 96.8646,40.0944 96.8646,42.7611 94.5,45.5C 92.8743,42.3783 90.2076,40.7117 86.5,40.5C 86.5,39.5 86.5,38.5 86.5,37.5C 82.5561,36.7255 82.7228,36.0589 87,35.5C 89.6353,35.7388 92.1353,36.4055 94.5,37.5 Z"/></g>
<g><path style="opacity:1" fill="#3d374b" d="M 92.5,34.5 C 93.6002,35.5585 94.9336,36.3918 96.5,37C 95.9056,37.4643 95.2389,37.631 94.5,37.5C 92.1353,36.4055 89.6353,35.7388 87,35.5C 82.7228,36.0589 82.5561,36.7255 86.5,37.5C 86.5,38.5 86.5,39.5 86.5,40.5C 85.1779,40.67 84.0113,40.3366 83,39.5C 82.3333,40.8333 82.3333,42.1667 83,43.5C 85.0519,44.7929 87.2186,45.7929 89.5,46.5C 88.791,47.404 87.791,47.7373 86.5,47.5C 83.8021,47.1551 81.8021,45.8218 80.5,43.5C 80.5,41.8333 80.5,40.1667 80.5,38.5C 78.5853,38.2155 76.9187,38.5489 75.5,39.5C 74.8333,39.5 74.1667,39.5 73.5,39.5C 71.3023,39.5912 70.9689,38.9245 72.5,37.5C 75.7273,37.3239 78.7273,36.6572 81.5,35.5C 82.2858,33.2649 83.9524,32.2649 86.5,32.5C 88.7986,32.5992 90.7986,33.2658 92.5,34.5 Z"/></g>
<g><path style="opacity:0.808" fill="#907d88" d="M 49.5,34.5 C 52.1359,34.4912 53.4693,35.8245 53.5,38.5C 52.7114,42.4332 50.378,44.7666 46.5,45.5C 48.7289,43.3842 50.7289,41.0508 52.5,38.5C 51.7142,36.9589 50.7142,35.6256 49.5,34.5 Z"/></g>
<g><path style="opacity:1" fill="#3b2530" d="M 52.5,29.5 C 58.1667,29.5 63.8333,29.5 69.5,29.5C 70.609,29.5569 71.609,29.8902 72.5,30.5C 72.3713,32.2161 72.038,33.8828 71.5,35.5C 70.4489,36.2223 69.7822,37.2223 69.5,38.5C 68.5876,39.7382 68.4209,41.0715 69,42.5C 69.3333,41.8333 69.6667,41.1667 70,40.5C 70.2735,42.3289 71.1068,43.8289 72.5,45C 71.9056,45.4643 71.2389,45.631 70.5,45.5C 62.2015,42.4461 54.2015,43.1128 46.5,47.5C 45.4937,47.0623 45.4937,46.3957 46.5,45.5C 50.378,44.7666 52.7114,42.4332 53.5,38.5C 53.4693,35.8245 52.1359,34.4912 49.5,34.5C 48.9162,31.715 49.9162,30.0483 52.5,29.5 Z M 58.5,36.5 C 58.6107,37.1174 58.944,37.6174 59.5,38C 58.0993,38.4101 56.766,38.9101 55.5,39.5C 55.5,38.5 55.5,37.5 55.5,36.5C 56.5,36.5 57.5,36.5 58.5,36.5 Z"/></g>
<g><path style="opacity:1" fill="#b1a2ac" d="M 54.5,35.5 C 58.8333,35.5 63.1667,35.5 67.5,35.5C 67.5,37.5 67.5,39.5 67.5,41.5C 63.1667,41.5 58.8333,41.5 54.5,41.5C 54.5,39.5 54.5,37.5 54.5,35.5 Z M 58.5,36.5 C 58.6107,37.1174 58.944,37.6174 59.5,38C 58.0993,38.4101 56.766,38.9101 55.5,39.5C 55.5,38.5 55.5,37.5 55.5,36.5C 56.5,36.5 57.5,36.5 58.5,36.5 Z"/></g>
<g><path style="opacity:0.547" fill="#f8f3f8" d="M 58.5,36.5 C 61.1667,36.5 63.8333,36.5 66.5,36.5C 66.5,37.8333 66.5,39.1667 66.5,40.5C 62.6286,40.815 58.9619,40.4816 55.5,39.5C 56.766,38.9101 58.0993,38.4101 59.5,38C 58.944,37.6174 58.6107,37.1174 58.5,36.5 Z"/></g>
<g><path style="opacity:0.622" fill="#c7b5c0" d="M 51.5,30.5 C 57.8333,30.5 64.1667,30.5 70.5,30.5C 70.5,31.5 70.5,32.5 70.5,33.5C 64.1667,33.5 57.8333,33.5 51.5,33.5C 51.5,32.5 51.5,31.5 51.5,30.5 Z"/></g>
<g><path style="opacity:0.145" fill="#c9b6c5" d="M 75.5,39.5 C 76.9187,38.5489 78.5853,38.2155 80.5,38.5C 80.5,40.1667 80.5,41.8333 80.5,43.5C 79.5655,42.4324 79.2322,41.099 79.5,39.5C 78.1667,39.5 76.8333,39.5 75.5,39.5 Z"/></g>
<g><path style="opacity:1" fill="#9ed1e6" d="M 86.5,40.5 C 90.2076,40.7117 92.8743,42.3783 94.5,45.5C 94.5299,46.4972 94.0299,47.1639 93,47.5C 91.8615,47.0109 90.6948,46.6775 89.5,46.5C 87.2186,45.7929 85.0519,44.7929 83,43.5C 82.3333,42.1667 82.3333,40.8333 83,39.5C 84.0113,40.3366 85.1779,40.67 86.5,40.5 Z"/></g>
<g><path style="opacity:1" fill="#f0ecee" d="M 70.5,45.5 C 75.747,47.7445 79.747,51.4112 82.5,56.5C 76.3986,58.1489 70.0653,59.1489 63.5,59.5C 61.0504,59.298 58.717,59.6314 56.5,60.5C 51.7632,60.951 47.0965,61.6177 42.5,62.5C 41.5798,61.9326 41.2465,62.5992 41.5,64.5C 41.1667,64.5 40.8333,64.5 40.5,64.5C 40.7678,62.901 40.4345,61.5676 39.5,60.5C 39.1667,57.8333 38.8333,57.8333 38.5,60.5C 38.1667,60.5 37.8333,60.5 37.5,60.5C 37.6079,58.2166 38.4412,56.2166 40,54.5C 42.2993,52.2721 44.4659,49.9388 46.5,47.5C 54.2015,43.1128 62.2015,42.4461 70.5,45.5 Z"/></g>
<g><path style="opacity:1" fill="#595566" d="M 92.5,34.5 C 95.9682,34.7302 98.6348,36.2302 100.5,39C 98.8595,42.7559 97.5262,46.5892 96.5,50.5C 92.7417,50.6048 89.4083,49.6048 86.5,47.5C 87.791,47.7373 88.791,47.404 89.5,46.5C 90.6948,46.6775 91.8615,47.0109 93,47.5C 94.0299,47.1639 94.5299,46.4972 94.5,45.5C 96.8646,42.7611 96.8646,40.0944 94.5,37.5C 95.2389,37.631 95.9056,37.4643 96.5,37C 94.9336,36.3918 93.6002,35.5585 92.5,34.5 Z"/></g>
<g><path style="opacity:0.933" fill="#5c4953" d="M 72.5,37.5 C 70.9689,38.9245 71.3023,39.5912 73.5,39.5C 73.0472,40.4584 72.3805,41.2917 71.5,42C 78.4626,45.7923 83.4626,51.2923 86.5,58.5C 85.6043,57.4937 84.9377,57.4937 84.5,58.5C 83.8333,57.8333 83.1667,57.1667 82.5,56.5C 79.747,51.4112 75.747,47.7445 70.5,45.5C 71.2389,45.631 71.9056,45.4643 72.5,45C 71.1068,43.8289 70.2735,42.3289 70,40.5C 69.6667,41.1667 69.3333,41.8333 69,42.5C 68.4209,41.0715 68.5876,39.7382 69.5,38.5C 70.391,37.8902 71.391,37.5569 72.5,37.5 Z"/></g>
<g><path style="opacity:1" fill="#ecc3d5" d="M 82.5,56.5 C 83.1667,57.1667 83.8333,57.8333 84.5,58.5C 87.1665,65.1674 87.1665,71.8341 84.5,78.5C 76.3691,93.0499 64.3691,97.2166 48.5,91C 43.8726,88.2117 40.5393,84.3783 38.5,79.5C 39.1667,79.5 39.5,79.1667 39.5,78.5C 48.8496,93.823 60.8496,96.4897 75.5,86.5C 78.8886,84.2748 81.3886,81.2748 83,77.5C 83.4994,71.8431 83.6661,66.1764 83.5,60.5C 76.8772,59.6204 70.2105,59.287 63.5,59.5C 70.0653,59.1489 76.3986,58.1489 82.5,56.5 Z M 48.5,84.5 C 50.0269,84.427 51.0269,85.0937 51.5,86.5C 49.9731,86.573 48.9731,85.9063 48.5,84.5 Z"/></g>
<g><path style="opacity:1" fill="#f7759c" d="M 74.5,86.5 C 72.9705,87.0668 71.4705,87.7334 70,88.5C 69.5172,87.552 69.3505,86.552 69.5,85.5C 63.7945,85.8288 58.1278,85.4954 52.5,84.5C 51.2776,82.0217 49.2776,81.0217 46.5,81.5C 45.4975,79.9891 44.8308,78.3224 44.5,76.5C 42.8333,76.5 41.1667,76.5 39.5,76.5C 39.5,75.8333 39.5,75.1667 39.5,74.5C 39.8212,72.9519 40.8212,72.2852 42.5,72.5C 43.1587,69.5448 43.4921,66.5448 43.5,63.5C 44.8333,63.5 46.1667,63.5 47.5,63.5C 54.6423,62.7484 61.809,62.0817 69,61.5C 80.1764,58.3466 84.5097,62.3466 82,73.5C 81.7071,77.9242 79.5404,80.9242 75.5,82.5C 74.5713,83.6888 74.238,85.0222 74.5,86.5 Z"/></g>
<g><path style="opacity:0.384" fill="#c9bcc2" d="M 34.5,61.5 C 34.7373,62.791 34.404,63.791 33.5,64.5C 33.0618,64.5654 32.7284,64.3988 32.5,64C 33.0659,63.0053 33.7326,62.172 34.5,61.5 Z"/></g>
<g><path style="opacity:1" fill="#e37f9e" d="M 63.5,59.5 C 70.2105,59.287 76.8772,59.6204 83.5,60.5C 83.6661,66.1764 83.4994,71.8431 83,77.5C 81.3886,81.2748 78.8886,84.2748 75.5,86.5C 75.1667,86.5 74.8333,86.5 74.5,86.5C 74.238,85.0222 74.5713,83.6888 75.5,82.5C 79.5404,80.9242 81.7071,77.9242 82,73.5C 84.5097,62.3466 80.1764,58.3466 69,61.5C 61.809,62.0817 54.6423,62.7484 47.5,63.5C 50.6467,62.9544 53.6467,61.9544 56.5,60.5C 58.717,59.6314 61.0504,59.298 63.5,59.5 Z"/></g>
<g><path style="opacity:0.729" fill="#9d8d94" d="M 86.5,58.5 C 90.0699,66.2386 89.7365,73.9053 85.5,81.5C 85.5,81.1667 85.5,80.8333 85.5,80.5C 87.7723,73.283 88.1056,65.9496 86.5,58.5 Z"/></g>
<g><path style="opacity:1" fill="#321825" d="M 86.5,58.5 C 88.1056,65.9496 87.7723,73.283 85.5,80.5C 84.6618,80.1583 84.3284,79.4916 84.5,78.5C 87.1665,71.8341 87.1665,65.1674 84.5,58.5C 84.9377,57.4937 85.6043,57.4937 86.5,58.5 Z"/></g>
<g><path style="opacity:1" fill="#dd99b0" d="M 39.5,60.5 C 40.4345,61.5676 40.7678,62.901 40.5,64.5C 40.8333,72.5 41.1667,72.5 41.5,64.5C 42.3382,64.1583 42.6716,63.4916 42.5,62.5C 47.0965,61.6177 51.7632,60.951 56.5,60.5C 53.6467,61.9544 50.6467,62.9544 47.5,63.5C 46.1667,63.5 44.8333,63.5 43.5,63.5C 43.4921,66.5448 43.1587,69.5448 42.5,72.5C 40.8212,72.2852 39.8212,72.9519 39.5,74.5C 37.9735,73.5081 37.3068,72.0081 37.5,70C 37.9339,66.7668 38.6006,63.6002 39.5,60.5 Z"/></g>
<g><path style="opacity:0.039" fill="#ecd2e2" d="M 37.5,60.5 C 37.8333,61.8333 38.1667,61.8333 38.5,60.5C 38.8333,60.5 39.1667,60.5 39.5,60.5C 38.6006,63.6002 37.9339,66.7668 37.5,70C 37.3068,72.0081 37.9735,73.5081 39.5,74.5C 39.5,75.1667 39.5,75.8333 39.5,76.5C 39.5,77.1667 39.5,77.8333 39.5,78.5C 38.8333,78.5 38.5,78.8333 38.5,79.5C 37.7784,79.0825 37.2784,78.4158 37,77.5C 36.5012,73.5138 36.3345,69.5138 36.5,65.5C 37.8333,64.8333 37.8333,64.1667 36.5,63.5C 36.2627,62.209 36.596,61.209 37.5,60.5 Z"/></g>
<g><path style="opacity:1" fill="#56434d" d="M 46.5,45.5 C 45.4937,46.3957 45.4937,47.0623 46.5,47.5C 44.4659,49.9388 42.2993,52.2721 40,54.5C 38.4412,56.2166 37.6079,58.2166 37.5,60.5C 36.596,61.209 36.2627,62.209 36.5,63.5C 36.5,64.1667 36.5,64.8333 36.5,65.5C 36.3345,69.5138 36.5012,73.5138 37,77.5C 37.2784,78.4158 37.7784,79.0825 38.5,79.5C 40.5393,84.3783 43.8726,88.2117 48.5,91C 64.3691,97.2166 76.3691,93.0499 84.5,78.5C 84.3284,79.4916 84.6618,80.1583 85.5,80.5C 85.5,80.8333 85.5,81.1667 85.5,81.5C 78.8345,93.6867 68.5012,98.5201 54.5,96C 51.5243,95.2952 48.8577,94.1286 46.5,92.5C 46.0269,91.0937 45.0269,90.427 43.5,90.5C 41.8333,89.5 40.5,88.1667 39.5,86.5C 39.573,84.9731 38.9063,83.9731 37.5,83.5C 35.8368,81.5073 34.6701,79.1739 34,76.5C 33.5012,72.5138 33.3345,68.5138 33.5,64.5C 34.404,63.791 34.7373,62.791 34.5,61.5C 35.8638,54.1428 39.8638,48.8095 46.5,45.5 Z M 48.5,84.5 C 50.0269,84.427 51.0269,85.0937 51.5,86.5C 49.9731,86.573 48.9731,85.9063 48.5,84.5 Z"/></g>
<g><path style="opacity:0.02" fill="#d8bdd4" d="M 37.5,83.5 C 38.9063,83.9731 39.573,84.9731 39.5,86.5C 38.0937,86.0269 37.427,85.0269 37.5,83.5 Z"/></g>
<g><path style="opacity:1" fill="#dd8ea7" d="M 39.5,76.5 C 41.1667,76.5 42.8333,76.5 44.5,76.5C 44.8308,78.3224 45.4975,79.9891 46.5,81.5C 49.2776,81.0217 51.2776,82.0217 52.5,84.5C 58.1278,85.4954 63.7945,85.8288 69.5,85.5C 69.3505,86.552 69.5172,87.552 70,88.5C 71.4705,87.7334 72.9705,87.0668 74.5,86.5C 74.8333,86.5 75.1667,86.5 75.5,86.5C 60.8496,96.4897 48.8496,93.823 39.5,78.5C 39.5,77.8333 39.5,77.1667 39.5,76.5 Z M 48.5,84.5 C 50.0269,84.427 51.0269,85.0937 51.5,86.5C 49.9731,86.573 48.9731,85.9063 48.5,84.5 Z"/></g>
<g><path style="opacity:0.157" fill="#fdd6e6" d="M 53.5,87.5 C 53.5,87.1667 53.5,86.8333 53.5,86.5C 58.5374,87.3658 63.5374,87.6992 68.5,87.5C 66.1489,89.2289 63.4822,89.8956 60.5,89.5C 59.5,88.1667 58.5,88.1667 57.5,89.5C 55.901,89.7678 54.5676,89.4345 53.5,88.5C 56.1667,88.1667 56.1667,87.8333 53.5,87.5 Z"/></g>
<g><path style="opacity:0.549" fill="#c8b5bc" d="M 43.5,90.5 C 45.0269,90.427 46.0269,91.0937 46.5,92.5C 44.9731,92.573 43.9731,91.9063 43.5,90.5 Z"/></g>
</svg>
