<?xml version="1.0" encoding="UTF-8"?>
<!DOCTYPE svg PUBLIC "-//W3C//DTD SVG 1.1//EN" "http://www.w3.org/Graphics/SVG/1.1/DTD/svg11.dtd">
<svg xmlns="http://www.w3.org/2000/svg" version="1.1" width="119px" height="114px" style="shape-rendering:geometricPrecision; text-rendering:geometricPrecision; image-rendering:optimizeQuality; fill-rule:evenodd; clip-rule:evenodd" xmlns:xlink="http://www.w3.org/1999/xlink">
<g><path style="opacity:0.355" fill="#948e95" d="M 80.5,17.5 C 80.5,17.8333 80.5,18.1667 80.5,18.5C 64.5,18.5 48.5,18.5 32.5,18.5C 34.2897,17.0027 36.4563,16.336 39,16.5C 52.8154,17.4184 66.6487,17.7518 80.5,17.5 Z"/></g>
<g><path style="opacity:0.877" fill="#372f39" d="M 32.5,18.5 C 48.5,18.5 64.5,18.5 80.5,18.5C 65.5,19.1667 50.5,19.8333 35.5,20.5C 34.1667,20.5 32.8333,20.5 31.5,20.5C 31.0618,20.5654 30.7284,20.3988 30.5,20C 31.4158,19.7216 32.0825,19.2216 32.5,18.5 Z"/></g>
<g><path style="opacity:1" fill="#504852" d="M 80.5,18.5 C 81.8333,19.1667 81.8333,19.8333 80.5,20.5C 65.5,20.5 50.5,20.5 35.5,20.5C 50.5,19.8333 65.5,19.1667 80.5,18.5 Z"/></g>
<g><path style="opacity:0.227" fill="#bbb6bc" d="M 94.5,19.5 C 96.7727,19.9568 98.106,21.2901 98.5,23.5C 97.8333,23.1667 97.1667,22.8333 96.5,22.5C 95.4489,21.7777 94.7822,20.7777 94.5,19.5 Z"/></g>
<g><path style="opacity:1" fill="#ddd9dd" d="M 91.5,18.5 C 89.076,18.1924 86.7427,18.5258 84.5,19.5C 87.9569,20.9242 91.2903,22.5908 94.5,24.5C 93.5041,24.4142 92.6708,24.7476 92,25.5C 89.3788,24.0085 86.5455,23.3418 83.5,23.5C 82.1667,23.1667 80.8333,22.8333 79.5,22.5C 74.3054,22.8205 69.3054,22.4872 64.5,21.5C 70.0262,21.8214 75.3595,21.4881 80.5,20.5C 81.8333,19.8333 81.8333,19.1667 80.5,18.5C 80.5,18.1667 80.5,17.8333 80.5,17.5C 81.4959,17.4142 82.3292,17.7476 83,18.5C 84.6736,16.9907 86.3403,16.3241 88,16.5C 89.3024,17.0848 90.469,17.7515 91.5,18.5 Z"/></g>
<g><path style="opacity:1" fill="#5b545d" d="M 32.5,18.5 C 32.0825,19.2216 31.4158,19.7216 30.5,20C 30.7284,20.3988 31.0618,20.5654 31.5,20.5C 29.1918,22.4707 26.8585,24.4707 24.5,26.5C 24.1583,25.6618 23.4916,25.3284 22.5,25.5C 24.3622,21.2228 27.6955,18.8894 32.5,18.5 Z"/></g>
<g><path style="opacity:1" fill="#dfdbe0" d="M 50.5,21.5 C 50.5,21.8333 50.5,22.1667 50.5,22.5C 50.6716,23.4916 50.3382,24.1583 49.5,24.5C 43.7255,23.6515 38.0588,23.3181 32.5,23.5C 38.0738,21.5467 44.0738,20.88 50.5,21.5 Z"/></g>
<g><path style="opacity:1" fill="#dad7db" d="M 50.5,22.5 C 50.5,22.1667 50.5,21.8333 50.5,21.5C 55.1667,21.5 59.8333,21.5 64.5,21.5C 69.3054,22.4872 74.3054,22.8205 79.5,22.5C 76.7131,23.4767 73.7131,23.81 70.5,23.5C 67.1625,23.0653 64.1625,23.7319 61.5,25.5C 61.4142,24.5041 61.7476,23.6708 62.5,23C 58.5138,22.5012 54.5138,22.3345 50.5,22.5 Z"/></g>
<g><path style="opacity:0.996" fill="#625a64" d="M 91.5,18.5 C 92.791,18.2627 93.791,18.596 94.5,19.5C 94.7822,20.7777 95.4489,21.7777 96.5,22.5C 95.6618,22.8417 95.3284,23.5084 95.5,24.5C 95.1667,24.5 94.8333,24.5 94.5,24.5C 91.2903,22.5908 87.9569,20.9242 84.5,19.5C 86.7427,18.5258 89.076,18.1924 91.5,18.5 Z"/></g>
<g><path style="opacity:1" fill="#dcdcdc" d="M 32.5,23.5 C 38.0588,23.3181 43.7255,23.6515 49.5,24.5C 49.5,24.8333 49.5,25.1667 49.5,25.5C 49.5569,26.609 49.8902,27.609 50.5,28.5C 46.8333,28.5 43.1667,28.5 39.5,28.5C 40.2625,27.7321 41.2625,27.2321 42.5,27C 43.6956,26.3457 43.6956,25.8457 42.5,25.5C 38.9612,25.2427 35.2945,25.576 31.5,26.5C 31.2627,25.209 31.596,24.209 32.5,23.5 Z"/></g>
<g><path style="opacity:1" fill="#d0cfcf" d="M 50.5,22.5 C 54.5138,22.3345 58.5138,22.5012 62.5,23C 61.7476,23.6708 61.4142,24.5041 61.5,25.5C 57.65,25.2444 53.65,25.2444 49.5,25.5C 49.5,25.1667 49.5,24.8333 49.5,24.5C 50.3382,24.1583 50.6716,23.4916 50.5,22.5 Z"/></g>
<g><path style="opacity:1" fill="#daddd9" d="M 70.5,23.5 C 72.3052,25.1969 74.6385,26.0302 77.5,26C 74.8333,26.3333 72.1667,26.6667 69.5,27C 69,27.5 68.5,28 68,28.5C 66.9887,27.6634 65.8221,27.33 64.5,27.5C 63.5,27.5 62.5,27.5 61.5,27.5C 61.5,26.8333 61.5,26.1667 61.5,25.5C 64.1625,23.7319 67.1625,23.0653 70.5,23.5 Z"/></g>
<g><path style="opacity:1" fill="#ddddde" d="M 83.5,23.5 C 86.5455,23.3418 89.3788,24.0085 92,25.5C 92.6708,24.7476 93.5041,24.4142 94.5,24.5C 94.8333,24.5 95.1667,24.5 95.5,24.5C 95.5,25.1667 95.5,25.8333 95.5,26.5C 92.431,27.5592 89.7643,27.5592 87.5,26.5C 89.7377,28.2585 90.7377,30.5918 90.5,33.5C 89.596,32.791 89.2627,31.791 89.5,30.5C 84.8608,29.8516 80.1942,29.8516 75.5,30.5C 74.8333,30.5 74.1667,30.5 73.5,30.5C 72.8333,30.1667 72.1667,29.8333 71.5,29.5C 71.6107,28.8826 71.944,28.3826 72.5,28C 77.2824,27.8814 81.9491,27.2148 86.5,26C 85.4293,25.1482 84.4293,24.3149 83.5,23.5 Z"/></g>
<g><path style="opacity:1" fill="#cac3cb" d="M 31.5,20.5 C 32.8333,20.5 34.1667,20.5 35.5,20.5C 50.5,20.5 65.5,20.5 80.5,20.5C 75.3595,21.4881 70.0262,21.8214 64.5,21.5C 59.8333,21.5 55.1667,21.5 50.5,21.5C 44.0738,20.88 38.0738,21.5467 32.5,23.5C 31.596,24.209 31.2627,25.209 31.5,26.5C 31.1667,26.5 30.8333,26.5 30.5,26.5C 28.8207,27.9163 27.1541,29.2497 25.5,30.5C 24.8333,30.5 24.1667,30.5 23.5,30.5C 23.5,30.1667 23.5,29.8333 23.5,29.5C 23.5569,28.391 23.8902,27.391 24.5,26.5C 26.8585,24.4707 29.1918,22.4707 31.5,20.5 Z"/></g>
<g><path style="opacity:0.043" fill="#c9c6d0" d="M 99.5,24.5 C 101.834,26.1757 102.834,28.509 102.5,31.5C 102.167,31.5 101.833,31.5 101.5,31.5C 101.122,29.079 100.455,26.7457 99.5,24.5 Z"/></g>
<g><path style="opacity:1" fill="#d0d2ce" d="M 61.5,25.5 C 61.5,26.1667 61.5,26.8333 61.5,27.5C 58.9327,27.7215 56.5994,28.3882 54.5,29.5C 53.1667,29.1667 51.8333,28.8333 50.5,28.5C 49.8902,27.609 49.5569,26.609 49.5,25.5C 53.65,25.2444 57.65,25.2444 61.5,25.5 Z"/></g>
<g><path style="opacity:1" fill="#dddedd" d="M 79.5,22.5 C 80.8333,22.8333 82.1667,23.1667 83.5,23.5C 84.4293,24.3149 85.4293,25.1482 86.5,26C 81.9491,27.2148 77.2824,27.8814 72.5,28C 71.944,28.3826 71.6107,28.8826 71.5,29.5C 69.8561,29.2865 68.3561,29.6198 67,30.5C 65.583,29.9221 64.7496,28.9221 64.5,27.5C 65.8221,27.33 66.9887,27.6634 68,28.5C 68.5,28 69,27.5 69.5,27C 72.1667,26.6667 74.8333,26.3333 77.5,26C 74.6385,26.0302 72.3052,25.1969 70.5,23.5C 73.7131,23.81 76.7131,23.4767 79.5,22.5 Z"/></g>
<g><path style="opacity:1" fill="#dcddd8" d="M 39.5,28.5 C 37.4079,30.1695 35.4079,31.8362 33.5,33.5C 30.9556,33.1043 28.7889,33.771 27,35.5C 26.8333,35 26.6667,34.5 26.5,34C 28.9622,32.0538 30.2955,29.5538 30.5,26.5C 30.8333,26.5 31.1667,26.5 31.5,26.5C 35.2945,25.576 38.9612,25.2427 42.5,25.5C 43.6956,25.8457 43.6956,26.3457 42.5,27C 41.2625,27.2321 40.2625,27.7321 39.5,28.5 Z"/></g>
<g><path style="opacity:1" fill="#dcdadd" d="M 61.5,27.5 C 62.5,27.5 63.5,27.5 64.5,27.5C 64.7496,28.9221 65.583,29.9221 67,30.5C 68.3561,29.6198 69.8561,29.2865 71.5,29.5C 72.1667,29.8333 72.8333,30.1667 73.5,30.5C 73.5,30.8333 73.5,31.1667 73.5,31.5C 71.7697,32.0256 70.4363,33.0256 69.5,34.5C 68.8333,34.8333 68.1667,35.1667 67.5,35.5C 65.556,30.2008 63.556,30.2008 61.5,35.5C 60.5,35.5 59.5,35.5 58.5,35.5C 58.5,33.5 58.5,31.5 58.5,29.5C 57.1667,29.5 55.8333,29.5 54.5,29.5C 56.5994,28.3882 58.9327,27.7215 61.5,27.5 Z"/></g>
<g><path style="opacity:1" fill="#d7d4d9" d="M 39.5,28.5 C 43.1667,28.5 46.8333,28.5 50.5,28.5C 49.7375,29.2679 48.7375,29.7679 47.5,30C 48.4158,30.2784 49.0825,30.7784 49.5,31.5C 44.3551,29.6632 39.6884,30.3299 35.5,33.5C 34.8333,33.8333 34.1667,34.1667 33.5,34.5C 33.5,34.1667 33.5,33.8333 33.5,33.5C 35.4079,31.8362 37.4079,30.1695 39.5,28.5 Z"/></g>
<g><path style="opacity:1" fill="#dddadd" d="M 50.5,28.5 C 51.8333,28.8333 53.1667,29.1667 54.5,29.5C 55.8333,29.5 57.1667,29.5 58.5,29.5C 58.5,31.5 58.5,33.5 58.5,35.5C 57.8333,36.5 57.1667,37.5 56.5,38.5C 55.8333,38.5 55.5,38.1667 55.5,37.5C 53.8061,35.1394 51.8061,33.1394 49.5,31.5C 49.0825,30.7784 48.4158,30.2784 47.5,30C 48.7375,29.7679 49.7375,29.2679 50.5,28.5 Z"/></g>
<g><path style="opacity:1" fill="#daddd7" d="M 95.5,26.5 C 94.3768,29.4352 93.3768,32.4352 92.5,35.5C 91.4777,35.1445 90.811,34.4778 90.5,33.5C 90.7377,30.5918 89.7377,28.2585 87.5,26.5C 89.7643,27.5592 92.431,27.5592 95.5,26.5 Z"/></g>
<g><path style="opacity:1" fill="#4a4642" d="M 49.5,31.5 C 51.8061,33.1394 53.8061,35.1394 55.5,37.5C 54.8333,37.5 54.1667,37.5 53.5,37.5C 52.1459,35.3041 50.1459,33.8041 47.5,33C 43.4761,32.5027 39.4761,32.6693 35.5,33.5C 39.6884,30.3299 44.3551,29.6632 49.5,31.5 Z"/></g>
<g><path style="opacity:1" fill="#46422f" d="M 73.5,31.5 C 75.8568,31.3367 78.1902,31.5034 80.5,32C 81.056,32.3826 81.3893,32.8826 81.5,33.5C 78.3508,33.2114 75.3508,33.7114 72.5,35C 70.9343,37.3256 69.2676,39.4922 67.5,41.5C 67.8782,39.079 68.5448,36.7457 69.5,34.5C 70.4363,33.0256 71.7697,32.0256 73.5,31.5 Z"/></g>
<g><path style="opacity:1" fill="#dcdcdd" d="M 30.5,26.5 C 30.2955,29.5538 28.9622,32.0538 26.5,34C 26.6667,34.5 26.8333,35 27,35.5C 28.7889,33.771 30.9556,33.1043 33.5,33.5C 33.5,33.8333 33.5,34.1667 33.5,34.5C 29.6782,34.6486 27.3449,36.6486 26.5,40.5C 25.513,37.2317 25.1796,33.8984 25.5,30.5C 27.1541,29.2497 28.8207,27.9163 30.5,26.5 Z"/></g>
<g><path style="opacity:1" fill="#4c473b" d="M 73.5,31.5 C 73.5,31.1667 73.5,30.8333 73.5,30.5C 74.1667,30.5 74.8333,30.5 75.5,30.5C 84.0156,29.9164 89.6823,33.5831 92.5,41.5C 91.8333,41.5 91.5,41.8333 91.5,42.5C 90.8333,42.1667 90.1667,41.8333 89.5,41.5C 89.1667,40.5 88.5,39.8333 87.5,39.5C 87.631,38.7611 87.4643,38.0944 87,37.5C 85.1879,36.0229 83.3545,34.6896 81.5,33.5C 81.3893,32.8826 81.056,32.3826 80.5,32C 78.1902,31.5034 75.8568,31.3367 73.5,31.5 Z"/></g>
<g><path style="opacity:1" fill="#d3d2d7" d="M 95.5,24.5 C 96.8897,25.8993 97.8897,27.5659 98.5,29.5C 97.5269,31.9479 97.1936,34.6146 97.5,37.5C 96.7784,37.0825 96.2784,36.4158 96,35.5C 93.9838,36.9552 93.1505,38.9552 93.5,41.5C 93.1667,41.5 92.8333,41.5 92.5,41.5C 89.6823,33.5831 84.0156,29.9164 75.5,30.5C 80.1942,29.8516 84.8608,29.8516 89.5,30.5C 89.2627,31.791 89.596,32.791 90.5,33.5C 90.811,34.4778 91.4777,35.1445 92.5,35.5C 93.3768,32.4352 94.3768,29.4352 95.5,26.5C 95.5,25.8333 95.5,25.1667 95.5,24.5 Z"/></g>
<g><path style="opacity:1" fill="#b7c84d" d="M 81.5,33.5 C 83.3545,34.6896 85.1879,36.0229 87,37.5C 87.4643,38.0944 87.631,38.7611 87.5,39.5C 86.078,38.075 84.4113,37.075 82.5,36.5C 77.4092,34.5212 73.4092,35.8545 70.5,40.5C 69.6618,40.8417 69.3284,41.5084 69.5,42.5C 68.5233,45.2869 68.19,48.2869 68.5,51.5C 68.1667,51.5 67.8333,51.5 67.5,51.5C 67.5,48.1667 67.5,44.8333 67.5,41.5C 69.2676,39.4922 70.9343,37.3256 72.5,35C 75.3508,33.7114 78.3508,33.2114 81.5,33.5 Z"/></g>
<g><path style="opacity:1" fill="#d7d3d9" d="M 23.5,30.5 C 24.1667,30.5 24.8333,30.5 25.5,30.5C 25.1796,33.8984 25.513,37.2317 26.5,40.5C 27.3449,36.6486 29.6782,34.6486 33.5,34.5C 33.5,34.8333 33.5,35.1667 33.5,35.5C 31.7775,37.2528 30.2775,39.2528 29,41.5C 28.5008,46.1548 28.3342,50.8215 28.5,55.5C 28.7678,57.099 28.4345,58.4324 27.5,59.5C 26.4739,58.147 25.1405,57.147 23.5,56.5C 23.5,47.8333 23.5,39.1667 23.5,30.5 Z"/></g>
<g><path style="opacity:1" fill="#4b463f" d="M 53.5,37.5 C 54.1667,37.5 54.8333,37.5 55.5,37.5C 55.5,38.1667 55.8333,38.5 56.5,38.5C 58.0017,42.3425 58.6684,46.3425 58.5,50.5C 57.9451,53.096 56.9451,55.4293 55.5,57.5C 55.8195,52.6367 55.4861,47.97 54.5,43.5C 54.1667,42.1667 53.8333,40.8333 53.5,39.5C 53.5,38.8333 53.5,38.1667 53.5,37.5 Z"/></g>
<g><path style="opacity:1" fill="#dddad7" d="M 67.5,35.5 C 66.1168,37.9779 65.1168,40.6446 64.5,43.5C 62.6197,41.2446 61.6197,38.5779 61.5,35.5C 63.556,30.2008 65.556,30.2008 67.5,35.5 Z"/></g>
<g><path style="opacity:1" fill="#cef021" d="M 82.5,36.5 C 84.2896,38.2722 85.6229,40.2722 86.5,42.5C 86.5,43.5 86.5,44.5 86.5,45.5C 86.1667,45.5 85.8333,45.5 85.5,45.5C 83.3693,42.9012 82.036,39.9012 81.5,36.5C 78.7718,36.1706 76.4385,36.8372 74.5,38.5C 73.3951,39.6005 72.0618,40.2671 70.5,40.5C 73.4092,35.8545 77.4092,34.5212 82.5,36.5 Z"/></g>
<g><path style="opacity:1" fill="#dbdcdc" d="M 97.5,37.5 C 97.7503,42.5805 97.2503,47.5805 96,52.5C 95.4375,50.1339 95.6042,47.8006 96.5,45.5C 96.4387,43.3472 95.4387,42.0138 93.5,41.5C 93.1505,38.9552 93.9838,36.9552 96,35.5C 96.2784,36.4158 96.7784,37.0825 97.5,37.5 Z"/></g>
<g><path style="opacity:1" fill="#cff614" d="M 74.5,38.5 C 74.5774,39.7498 75.244,40.5831 76.5,41C 75.6198,42.3561 75.2865,43.8561 75.5,45.5C 76.5,45.5 77.5,45.5 78.5,45.5C 78.33,46.8221 78.6634,47.9887 79.5,49C 78.9056,49.4643 78.2389,49.631 77.5,49.5C 76.7325,45.861 76.0658,46.1943 75.5,50.5C 71.5089,49.872 70.1755,51.2053 71.5,54.5C 70.8826,54.3893 70.3826,54.056 70,53.5C 69.5014,49.8484 69.3347,46.1817 69.5,42.5C 69.3284,41.5084 69.6618,40.8417 70.5,40.5C 72.0618,40.2671 73.3951,39.6005 74.5,38.5 Z"/></g>
<g><path style="opacity:1" fill="#dddbdf" d="M 58.5,35.5 C 59.5,35.5 60.5,35.5 61.5,35.5C 61.6197,38.5779 62.6197,41.2446 64.5,43.5C 64.5,43.8333 64.5,44.1667 64.5,44.5C 63.6909,46.2922 63.1909,48.2922 63,50.5C 61.4474,39.8949 60.2807,39.8949 59.5,50.5C 59.1667,50.5 58.8333,50.5 58.5,50.5C 58.6684,46.3425 58.0017,42.3425 56.5,38.5C 57.1667,37.5 57.8333,36.5 58.5,35.5 Z"/></g>
<g><path style="opacity:1" fill="#cef710" d="M 85.5,45.5 C 84.2405,48.0182 82.9072,47.8515 81.5,45C 80.2506,44.2599 79.2506,44.4265 78.5,45.5C 77.5,45.5 76.5,45.5 75.5,45.5C 75.2865,43.8561 75.6198,42.3561 76.5,41C 75.244,40.5831 74.5774,39.7498 74.5,38.5C 76.4385,36.8372 78.7718,36.1706 81.5,36.5C 82.036,39.9012 83.3693,42.9012 85.5,45.5 Z"/></g>
<g><path style="opacity:1" fill="#4f4f2b" d="M 53.5,37.5 C 53.5,38.1667 53.5,38.8333 53.5,39.5C 52.8333,39.1667 52.1667,38.8333 51.5,38.5C 51.1898,36.8564 50.1898,35.8564 48.5,35.5C 46.2046,33.615 43.538,33.115 40.5,34C 32.368,38.8694 29.368,46.0361 31.5,55.5C 30.3516,51.0189 30.1849,46.3522 31,41.5C 32.5588,39.7834 33.3921,37.7834 33.5,35.5C 33.5,35.1667 33.5,34.8333 33.5,34.5C 34.1667,34.1667 34.8333,33.8333 35.5,33.5C 39.4761,32.6693 43.4761,32.5027 47.5,33C 50.1459,33.8041 52.1459,35.3041 53.5,37.5 Z"/></g>
<g><path style="opacity:1" fill="#cff710" d="M 45.5,51.5 C 44.0413,51.5674 42.7079,51.2341 41.5,50.5C 40.791,49.596 39.791,49.2627 38.5,49.5C 38.7678,51.099 38.4345,52.4324 37.5,53.5C 37.1065,50.0703 37.7732,46.9036 39.5,44C 37.9442,41.499 38.6108,39.999 41.5,39.5C 42.7079,38.7659 44.0413,38.4326 45.5,38.5C 45.5,42.8333 45.5,47.1667 45.5,51.5 Z"/></g>
<g><path style="opacity:1" fill="#d0f514" d="M 51.5,38.5 C 51.5,39.5 51.5,40.5 51.5,41.5C 49.5,44.8333 47.5,48.1667 45.5,51.5C 45.5,47.1667 45.5,42.8333 45.5,38.5C 44.0413,38.4326 42.7079,38.7659 41.5,39.5C 41.1583,38.6618 40.4916,38.3284 39.5,38.5C 40.9117,37.4675 42.5784,36.8008 44.5,36.5C 46.851,37.1734 49.1843,37.8401 51.5,38.5 Z"/></g>
<g><path style="opacity:1" fill="#cff31a" d="M 85.5,45.5 C 85.8333,45.5 86.1667,45.5 86.5,45.5C 87.1426,51.9448 85.476,57.6115 81.5,62.5C 80.8333,62.5 80.1667,62.5 79.5,62.5C 77.0276,62.6347 75.6943,61.968 75.5,60.5C 76.4959,60.4142 77.3292,60.7476 78,61.5C 79.2002,59.5884 80.8669,58.2551 83,57.5C 84.4116,52.0594 82.9116,50.726 78.5,53.5C 77.5713,52.3112 77.238,50.9778 77.5,49.5C 78.2389,49.631 78.9056,49.4643 79.5,49C 78.6634,47.9887 78.33,46.8221 78.5,45.5C 79.2506,44.4265 80.2506,44.2599 81.5,45C 82.9072,47.8515 84.2405,48.0182 85.5,45.5 Z"/></g>
<g><path style="opacity:1" fill="#b7c45b" d="M 48.5,35.5 C 42.3096,34.2682 37.6429,36.2682 34.5,41.5C 32.7895,45.8807 32.1228,50.5474 32.5,55.5C 32.1667,55.5 31.8333,55.5 31.5,55.5C 29.368,46.0361 32.368,38.8694 40.5,34C 43.538,33.115 46.2046,33.615 48.5,35.5 Z"/></g>
<g><path style="opacity:1" fill="#c4e12a" d="M 48.5,35.5 C 50.1898,35.8564 51.1898,36.8564 51.5,38.5C 49.1843,37.8401 46.851,37.1734 44.5,36.5C 42.5784,36.8008 40.9117,37.4675 39.5,38.5C 37.8267,39.343 36.66,40.6763 36,42.5C 35.3333,46.1667 35.3333,49.8333 36,53.5C 36.2321,54.7375 36.7321,55.7375 37.5,56.5C 38.404,57.209 38.7373,58.209 38.5,59.5C 36.665,58.8777 35.4983,57.5444 35,55.5C 34.5008,50.8452 34.3342,46.1785 34.5,41.5C 37.6429,36.2682 42.3096,34.2682 48.5,35.5 Z"/></g>
<g><path style="opacity:1" fill="#b8c94f" d="M 82.5,36.5 C 84.4113,37.075 86.078,38.075 87.5,39.5C 88.5,39.8333 89.1667,40.5 89.5,41.5C 90.4528,47.3423 90.7861,53.009 90.5,58.5C 90.5,58.8333 90.5,59.1667 90.5,59.5C 90.1667,60.1667 89.8333,60.8333 89.5,61.5C 89.1667,61.5 88.8333,61.5 88.5,61.5C 84.8518,63.6426 80.8518,64.6426 76.5,64.5C 76.5,64.1667 76.5,63.8333 76.5,63.5C 77.791,63.7373 78.791,63.404 79.5,62.5C 80.1667,62.5 80.8333,62.5 81.5,62.5C 84.5059,61.3635 86.5059,59.1968 87.5,56C 88.013,53.3576 88.3463,50.6909 88.5,48C 88.4535,45.7047 87.7868,43.8714 86.5,42.5C 85.6229,40.2722 84.2896,38.2722 82.5,36.5 Z"/></g>
<g><path style="opacity:1" fill="#5f5761" d="M 99.5,32.5 C 100.167,44.1667 100.833,55.8333 101.5,67.5C 101.44,68.0431 101.107,68.3764 100.5,68.5C 99.501,56.5185 99.1677,44.5185 99.5,32.5 Z"/></g>
<g><path style="opacity:1" fill="#463f4b" d="M 22.5,25.5 C 23.4916,25.3284 24.1583,25.6618 24.5,26.5C 23.8902,27.391 23.5569,28.391 23.5,29.5C 22.192,43.6867 22.192,58.0201 23.5,72.5C 23.2528,73.7133 22.5862,74.38 21.5,74.5C 20.6618,74.1583 20.3284,73.4916 20.5,72.5C 20.3334,58.8293 20.5001,45.1626 21,31.5C 21.5046,29.4817 22.0046,27.4817 22.5,25.5 Z"/></g>
<g><path style="opacity:1" fill="#cff711" d="M 41.5,50.5 C 41.5,51.5 41.5,52.5 41.5,53.5C 42.8333,53.5 44.1667,53.5 45.5,53.5C 45.2322,55.099 45.5655,56.4324 46.5,57.5C 46.4183,60.6127 44.4183,61.9461 40.5,61.5C 40.1667,60.5 39.5,59.8333 38.5,59.5C 38.7373,58.209 38.404,57.209 37.5,56.5C 37.5,55.5 37.5,54.5 37.5,53.5C 38.4345,52.4324 38.7678,51.099 38.5,49.5C 39.791,49.2627 40.791,49.596 41.5,50.5 Z"/></g>
<g><path style="opacity:1" fill="#494637" d="M 69.5,34.5 C 68.5448,36.7457 67.8782,39.079 67.5,41.5C 67.5,44.8333 67.5,48.1667 67.5,51.5C 67.5,52.5 67.5,53.5 67.5,54.5C 66.7281,53.3065 65.7281,52.3065 64.5,51.5C 64.5,49.1667 64.5,46.8333 64.5,44.5C 64.5,44.1667 64.5,43.8333 64.5,43.5C 65.1168,40.6446 66.1168,37.9779 67.5,35.5C 68.1667,35.1667 68.8333,34.8333 69.5,34.5 Z"/></g>
<g><path style="opacity:1" fill="#4c4744" d="M 92.5,41.5 C 92.8333,41.5 93.1667,41.5 93.5,41.5C 94.481,46.1292 94.6477,50.7959 94,55.5C 93.6232,56.9423 92.7899,57.9423 91.5,58.5C 91.5,53.1667 91.5,47.8333 91.5,42.5C 91.5,41.8333 91.8333,41.5 92.5,41.5 Z"/></g>
<g><path style="opacity:1" fill="#cef21a" d="M 39.5,38.5 C 40.4916,38.3284 41.1583,38.6618 41.5,39.5C 38.6108,39.999 37.9442,41.499 39.5,44C 37.7732,46.9036 37.1065,50.0703 37.5,53.5C 37.5,54.5 37.5,55.5 37.5,56.5C 36.7321,55.7375 36.2321,54.7375 36,53.5C 35.3333,49.8333 35.3333,46.1667 36,42.5C 36.66,40.6763 37.8267,39.343 39.5,38.5 Z"/></g>
<g><path style="opacity:1" fill="#cff615" d="M 51.5,41.5 C 52.1174,41.6107 52.6174,41.944 53,42.5C 53.6667,46.1667 53.6667,49.8333 53,53.5C 51.1079,54.6174 50.2746,56.2841 50.5,58.5C 49.0413,58.5674 47.7079,58.2341 46.5,57.5C 45.5655,56.4324 45.2322,55.099 45.5,53.5C 44.1667,53.5 42.8333,53.5 41.5,53.5C 41.5,52.5 41.5,51.5 41.5,50.5C 42.7079,51.2341 44.0413,51.5674 45.5,51.5C 47.5,48.1667 49.5,44.8333 51.5,41.5 Z"/></g>
<g><path style="opacity:1" fill="#dbd9dd" d="M 98.5,29.5 C 98.5,41.1667 98.5,52.8333 98.5,64.5C 97.8347,62.3021 97.1681,59.9688 96.5,57.5C 94.8211,59.1045 92.8211,59.7711 90.5,59.5C 90.5,59.1667 90.5,58.8333 90.5,58.5C 90.8333,58.5 91.1667,58.5 91.5,58.5C 92.7899,57.9423 93.6232,56.9423 94,55.5C 94.6477,50.7959 94.481,46.1292 93.5,41.5C 95.4387,42.0138 96.4387,43.3472 96.5,45.5C 95.6042,47.8006 95.4375,50.1339 96,52.5C 97.2503,47.5805 97.7503,42.5805 97.5,37.5C 97.1936,34.6146 97.5269,31.9479 98.5,29.5 Z"/></g>
<g><path style="opacity:1" fill="#cdcccd" d="M 64.5,44.5 C 64.5,46.8333 64.5,49.1667 64.5,51.5C 64.5,51.8333 64.5,52.1667 64.5,52.5C 63.5,53.1667 62.5,53.8333 61.5,54.5C 61.7709,52.6203 61.1042,51.287 59.5,50.5C 60.2807,39.8949 61.4474,39.8949 63,50.5C 63.1909,48.2922 63.6909,46.2922 64.5,44.5 Z"/></g>
<g><path style="opacity:1" fill="#d0f70f" d="M 77.5,49.5 C 77.238,50.9778 77.5713,52.3112 78.5,53.5C 82.9116,50.726 84.4116,52.0594 83,57.5C 80.8669,58.2551 79.2002,59.5884 78,61.5C 77.3292,60.7476 76.4959,60.4142 75.5,60.5C 75.1551,57.8021 73.8218,55.8021 71.5,54.5C 70.1755,51.2053 71.5089,49.872 75.5,50.5C 76.0658,46.1943 76.7325,45.861 77.5,49.5 Z"/></g>
<g><path style="opacity:0.615" fill="#9e99a2" d="M 22.5,25.5 C 22.0046,27.4817 21.5046,29.4817 21,31.5C 20.5001,45.1626 20.3334,58.8293 20.5,72.5C 17.6852,57.2705 17.8519,41.9371 21,26.5C 21.3826,25.944 21.8826,25.6107 22.5,25.5 Z"/></g>
<g><path style="opacity:1" fill="#464033" d="M 33.5,35.5 C 33.3921,37.7834 32.5588,39.7834 31,41.5C 30.1849,46.3522 30.3516,51.0189 31.5,55.5C 31.8333,55.5 32.1667,55.5 32.5,55.5C 32.5,55.8333 32.5,56.1667 32.5,56.5C 32.5,57.8333 31.8333,58.5 30.5,58.5C 29.8333,57.5 29.1667,56.5 28.5,55.5C 28.3342,50.8215 28.5008,46.1548 29,41.5C 30.2775,39.2528 31.7775,37.2528 33.5,35.5 Z"/></g>
<g><path style="opacity:1" fill="#dbd9db" d="M 64.5,52.5 C 65.3723,56.5745 67.0389,60.2411 69.5,63.5C 68.2196,64.9313 66.5529,65.5979 64.5,65.5C 63.8333,63.8333 63.1667,62.1667 62.5,60.5C 61.8505,58.5648 61.5172,56.5648 61.5,54.5C 62.5,53.8333 63.5,53.1667 64.5,52.5 Z"/></g>
<g><path style="opacity:1" fill="#dad7dc" d="M 58.5,50.5 C 58.8333,50.5 59.1667,50.5 59.5,50.5C 61.1042,51.287 61.7709,52.6203 61.5,54.5C 61.5172,56.5648 61.8505,58.5648 62.5,60.5C 61.325,60.281 60.325,60.6143 59.5,61.5C 59.0057,63.0255 58.339,64.3588 57.5,65.5C 56.1667,65.5 54.8333,65.5 53.5,65.5C 53.5,64.1667 53.5,62.8333 53.5,61.5C 54.1667,60.1667 54.8333,58.8333 55.5,57.5C 56.9451,55.4293 57.9451,53.096 58.5,50.5 Z"/></g>
<g><path style="opacity:1" fill="#cde937" d="M 69.5,42.5 C 69.3347,46.1817 69.5014,49.8484 70,53.5C 70.3826,54.056 70.8826,54.3893 71.5,54.5C 73.8218,55.8021 75.1551,57.8021 75.5,60.5C 75.6943,61.968 77.0276,62.6347 79.5,62.5C 78.791,63.404 77.791,63.7373 76.5,63.5C 73.2155,62.0502 70.7155,59.7168 69,56.5C 68.5065,54.8659 68.3398,53.1992 68.5,51.5C 68.19,48.2869 68.5233,45.2869 69.5,42.5 Z"/></g>
<g><path style="opacity:1" fill="#c9c6cb" d="M 98.5,29.5 C 99.404,30.209 99.7373,31.209 99.5,32.5C 99.1677,44.5185 99.501,56.5185 100.5,68.5C 101.107,68.3764 101.44,68.0431 101.5,67.5C 101.833,67.5 102.167,67.5 102.5,67.5C 102.802,70.0593 102.468,72.3926 101.5,74.5C 101.5,73.5 101.5,72.5 101.5,71.5C 100.486,70.3263 99.153,69.6596 97.5,69.5C 98.3007,67.9582 98.634,66.2915 98.5,64.5C 98.5,52.8333 98.5,41.1667 98.5,29.5 Z"/></g>
<g><path style="opacity:0.989" fill="#3e3740" d="M 96.5,22.5 C 97.1667,22.8333 97.8333,23.1667 98.5,23.5C 99.1667,23.5 99.5,23.8333 99.5,24.5C 100.455,26.7457 101.122,29.079 101.5,31.5C 101.5,43.5 101.5,55.5 101.5,67.5C 100.833,55.8333 100.167,44.1667 99.5,32.5C 99.7373,31.209 99.404,30.209 98.5,29.5C 97.8897,27.5659 96.8897,25.8993 95.5,24.5C 95.3284,23.5084 95.6618,22.8417 96.5,22.5 Z"/></g>
<g><path style="opacity:1" fill="#50551b" d="M 67.5,51.5 C 67.8333,51.5 68.1667,51.5 68.5,51.5C 68.3398,53.1992 68.5065,54.8659 69,56.5C 70.7155,59.7168 73.2155,62.0502 76.5,63.5C 76.5,63.8333 76.5,64.1667 76.5,64.5C 76.1667,64.5 75.8333,64.5 75.5,64.5C 70.9876,62.6533 68.321,59.3199 67.5,54.5C 67.5,53.5 67.5,52.5 67.5,51.5 Z"/></g>
<g><path style="opacity:1" fill="#ddddda" d="M 23.5,56.5 C 25.1405,57.147 26.4739,58.147 27.5,59.5C 27.8756,62.6267 27.8756,65.6267 27.5,68.5C 26.1653,66.7988 24.832,65.1321 23.5,63.5C 23.5,61.1667 23.5,58.8333 23.5,56.5 Z"/></g>
<g><path style="opacity:1" fill="#5e642d" d="M 89.5,41.5 C 90.1667,41.8333 90.8333,42.1667 91.5,42.5C 91.5,47.8333 91.5,53.1667 91.5,58.5C 91.1667,58.5 90.8333,58.5 90.5,58.5C 90.7861,53.009 90.4528,47.3423 89.5,41.5 Z"/></g>
<g><path style="opacity:0.761" fill="#868086" d="M 101.5,31.5 C 101.833,31.5 102.167,31.5 102.5,31.5C 103.781,43.6404 103.781,55.6404 102.5,67.5C 102.167,67.5 101.833,67.5 101.5,67.5C 101.5,55.5 101.5,43.5 101.5,31.5 Z"/></g>
<g><path style="opacity:1" fill="#b0ba6a" d="M 32.5,56.5 C 34.1667,59.5 36.5,61.8333 39.5,63.5C 37.3146,63.2964 35.3146,62.6298 33.5,61.5C 31.8564,61.1898 30.8564,60.1898 30.5,58.5C 31.8333,58.5 32.5,57.8333 32.5,56.5 Z"/></g>
<g><path style="opacity:1" fill="#cbe542" d="M 51.5,38.5 C 52.1667,38.8333 52.8333,39.1667 53.5,39.5C 53.8333,40.8333 54.1667,42.1667 54.5,43.5C 54.7633,47.6002 54.4299,51.6002 53.5,55.5C 52.173,58.827 49.8397,61.1604 46.5,62.5C 44.2646,62.7947 42.2646,62.4614 40.5,61.5C 44.4183,61.9461 46.4183,60.6127 46.5,57.5C 47.7079,58.2341 49.0413,58.5674 50.5,58.5C 50.2746,56.2841 51.1079,54.6174 53,53.5C 53.6667,49.8333 53.6667,46.1667 53,42.5C 52.6174,41.944 52.1174,41.6107 51.5,41.5C 51.5,40.5 51.5,39.5 51.5,38.5 Z"/></g>
<g><path style="opacity:1" fill="#bcda27" d="M 86.5,42.5 C 87.7868,43.8714 88.4535,45.7047 88.5,48C 88.3463,50.6909 88.013,53.3576 87.5,56C 86.5059,59.1968 84.5059,61.3635 81.5,62.5C 85.476,57.6115 87.1426,51.9448 86.5,45.5C 86.5,44.5 86.5,43.5 86.5,42.5 Z"/></g>
<g><path style="opacity:1" fill="#bbd241" d="M 34.5,41.5 C 34.3342,46.1785 34.5008,50.8452 35,55.5C 35.4983,57.5444 36.665,58.8777 38.5,59.5C 39.5,59.8333 40.1667,60.5 40.5,61.5C 42.2646,62.4614 44.2646,62.7947 46.5,62.5C 44.7354,63.4614 42.7354,63.7947 40.5,63.5C 40.1667,63.5 39.8333,63.5 39.5,63.5C 36.5,61.8333 34.1667,59.5 32.5,56.5C 32.5,56.1667 32.5,55.8333 32.5,55.5C 32.1228,50.5474 32.7895,45.8807 34.5,41.5 Z"/></g>
<g><path style="opacity:1" fill="#5a631f" d="M 53.5,55.5 C 52.0094,63.0701 47.6761,65.7368 40.5,63.5C 42.7354,63.7947 44.7354,63.4614 46.5,62.5C 49.8397,61.1604 52.173,58.827 53.5,55.5 Z"/></g>
<g><path style="opacity:1" fill="#dad9da" d="M 28.5,55.5 C 29.1667,56.5 29.8333,57.5 30.5,58.5C 30.8564,60.1898 31.8564,61.1898 33.5,61.5C 33.5,62.5 33.5,63.5 33.5,64.5C 32.7784,64.0825 32.2784,63.4158 32,62.5C 31.3623,63.6086 30.8623,64.7753 30.5,66C 30.8361,67.0299 31.5028,67.5299 32.5,67.5C 31.2588,70.889 30.9254,74.2223 31.5,77.5C 26.4245,74.3317 23.7578,69.665 23.5,63.5C 24.832,65.1321 26.1653,66.7988 27.5,68.5C 27.8756,65.6267 27.8756,62.6267 27.5,59.5C 28.4345,58.4324 28.7678,57.099 28.5,55.5 Z"/></g>
<g><path style="opacity:1" fill="#dcdbd8" d="M 98.5,64.5 C 98.634,66.2915 98.3007,67.9582 97.5,69.5C 99.0974,71.7564 98.4307,73.0897 95.5,73.5C 95.5,72.1667 95.5,70.8333 95.5,69.5C 89.2933,69.1328 88.96,67.2995 94.5,64C 94.0019,62.8419 93.1685,62.0085 92,61.5C 90.8691,62.3353 90.0358,62.3353 89.5,61.5C 89.8333,60.8333 90.1667,60.1667 90.5,59.5C 92.8211,59.7711 94.8211,59.1045 96.5,57.5C 97.1681,59.9688 97.8347,62.3021 98.5,64.5 Z"/></g>
<g><path style="opacity:1" fill="#d7d3db" d="M 33.5,64.5 C 37.6735,67.7083 42.3402,68.375 47.5,66.5C 47.5,67.5 47.5,68.5 47.5,69.5C 45.8333,69.5 44.1667,69.5 42.5,69.5C 38.838,69.9661 35.5046,69.2994 32.5,67.5C 31.5028,67.5299 30.8361,67.0299 30.5,66C 30.8623,64.7753 31.3623,63.6086 32,62.5C 32.2784,63.4158 32.7784,64.0825 33.5,64.5 Z"/></g>
<g><path style="opacity:1" fill="#4c4744" d="M 62.5,60.5 C 63.1667,62.1667 63.8333,63.8333 64.5,65.5C 65.5778,68.4021 66.2444,71.4021 66.5,74.5C 66.1667,74.5 65.8333,74.5 65.5,74.5C 62.1667,74.5 58.8333,74.5 55.5,74.5C 55.5,73.1667 55.5,71.8333 55.5,70.5C 56.5375,69.0697 57.2041,67.403 57.5,65.5C 58.339,64.3588 59.0057,63.0255 59.5,61.5C 60.325,60.6143 61.325,60.281 62.5,60.5 Z"/></g>
<g><path style="opacity:1" fill="#524e4c" d="M 64.5,51.5 C 65.7281,52.3065 66.7281,53.3065 67.5,54.5C 68.321,59.3199 70.9876,62.6533 75.5,64.5C 77.2789,66.3435 79.6122,67.0102 82.5,66.5C 80.7354,67.4614 78.7354,67.7947 76.5,67.5C 75.391,67.4431 74.391,67.1098 73.5,66.5C 72.5637,65.0256 71.2303,64.0256 69.5,63.5C 67.0389,60.2411 65.3723,56.5745 64.5,52.5C 64.5,52.1667 64.5,51.8333 64.5,51.5 Z"/></g>
<g><path style="opacity:1" fill="#4d4a39" d="M 54.5,43.5 C 55.4861,47.97 55.8195,52.6367 55.5,57.5C 54.8333,58.8333 54.1667,60.1667 53.5,61.5C 52.1667,62.8333 50.8333,64.1667 49.5,65.5C 48.8333,65.8333 48.1667,66.1667 47.5,66.5C 42.3402,68.375 37.6735,67.7083 33.5,64.5C 33.5,63.5 33.5,62.5 33.5,61.5C 35.3146,62.6298 37.3146,63.2964 39.5,63.5C 39.8333,63.5 40.1667,63.5 40.5,63.5C 47.6761,65.7368 52.0094,63.0701 53.5,55.5C 54.4299,51.6002 54.7633,47.6002 54.5,43.5 Z"/></g>
<g><path style="opacity:1" fill="#44422f" d="M 88.5,61.5 C 88.5674,62.9587 88.2341,64.2921 87.5,65.5C 85.8828,66.038 84.2161,66.3713 82.5,66.5C 79.6122,67.0102 77.2789,66.3435 75.5,64.5C 75.8333,64.5 76.1667,64.5 76.5,64.5C 80.8518,64.6426 84.8518,63.6426 88.5,61.5 Z"/></g>
<g><path style="opacity:1" fill="#dad7dd" d="M 53.5,61.5 C 53.5,62.8333 53.5,64.1667 53.5,65.5C 54.8333,65.5 56.1667,65.5 57.5,65.5C 57.2041,67.403 56.5375,69.0697 55.5,70.5C 55.44,69.9569 55.1067,69.6236 54.5,69.5C 53.9348,71.5435 52.9348,73.2102 51.5,74.5C 49.9519,74.1788 49.2852,73.1788 49.5,71.5C 49.5,69.5 49.5,67.5 49.5,65.5C 50.8333,64.1667 52.1667,62.8333 53.5,61.5 Z"/></g>
<g><path style="opacity:1" fill="#d2d0d0" d="M 69.5,63.5 C 71.2303,64.0256 72.5637,65.0256 73.5,66.5C 72.2617,66.81 72.2617,67.31 73.5,68C 68.8782,67.8015 66.8782,69.9682 67.5,74.5C 67.1667,74.5 66.8333,74.5 66.5,74.5C 66.2444,71.4021 65.5778,68.4021 64.5,65.5C 66.5529,65.5979 68.2196,64.9313 69.5,63.5 Z"/></g>
<g><path style="opacity:1" fill="#dcdbde" d="M 88.5,61.5 C 88.8333,61.5 89.1667,61.5 89.5,61.5C 90.0358,62.3353 90.8691,62.3353 92,61.5C 93.1685,62.0085 94.0019,62.8419 94.5,64C 88.96,67.2995 89.2933,69.1328 95.5,69.5C 95.5,70.8333 95.5,72.1667 95.5,73.5C 91.9913,73.5424 88.658,72.8758 85.5,71.5C 85.5,70.8333 85.1667,70.5 84.5,70.5C 85.343,69.0167 86.343,67.35 87.5,65.5C 88.2341,64.2921 88.5674,62.9587 88.5,61.5 Z"/></g>
<g><path style="opacity:1" fill="#d1d1cc" d="M 49.5,65.5 C 49.5,67.5 49.5,69.5 49.5,71.5C 46.7889,74.1482 44.1222,74.1482 41.5,71.5C 41.8333,70.8333 42.1667,70.1667 42.5,69.5C 44.1667,69.5 45.8333,69.5 47.5,69.5C 47.5,68.5 47.5,67.5 47.5,66.5C 48.1667,66.1667 48.8333,65.8333 49.5,65.5 Z"/></g>
<g><path style="opacity:1" fill="#dcdbde" d="M 73.5,66.5 C 74.391,67.1098 75.391,67.4431 76.5,67.5C 76.0825,68.2216 75.4158,68.7216 74.5,69C 75.5981,69.7697 75.5981,70.603 74.5,71.5C 72.8718,73.9884 71.5384,76.6551 70.5,79.5C 69.5826,79.4936 69.0826,80.4936 69,82.5C 68.2571,80.5594 68.4238,78.7261 69.5,77C 68.9056,76.5357 68.2389,76.369 67.5,76.5C 68.5063,75.6043 68.5063,74.9377 67.5,74.5C 66.8782,69.9682 68.8782,67.8015 73.5,68C 72.2617,67.31 72.2617,66.81 73.5,66.5 Z"/></g>
<g><path style="opacity:1" fill="#cdcbd0" d="M 87.5,65.5 C 86.343,67.35 85.343,69.0167 84.5,70.5C 81.2737,70.3664 77.9403,70.6997 74.5,71.5C 75.5981,70.603 75.5981,69.7697 74.5,69C 75.4158,68.7216 76.0825,68.2216 76.5,67.5C 78.7354,67.7947 80.7354,67.4614 82.5,66.5C 84.2161,66.3713 85.8828,66.038 87.5,65.5 Z"/></g>
<g><path style="opacity:1" fill="#b7bc6f" d="M 59.5,66.5 C 61.7012,66.8584 63.0345,68.1917 63.5,70.5C 61.8333,71.8333 60.1667,71.8333 58.5,70.5C 59.2458,69.2638 59.5792,67.9305 59.5,66.5 Z"/></g>
<g><path style="opacity:1" fill="#d0d1d0" d="M 84.5,70.5 C 85.1667,70.5 85.5,70.8333 85.5,71.5C 83.847,71.6596 82.5137,72.3263 81.5,73.5C 79.8984,75.0739 77.8984,75.7406 75.5,75.5C 74.6236,75.6309 73.9569,75.2975 73.5,74.5C 74.1272,73.5832 74.4606,72.5832 74.5,71.5C 77.9403,70.6997 81.2737,70.3664 84.5,70.5 Z"/></g>
<g><path style="opacity:1" fill="#dcdcde" d="M 41.5,71.5 C 44.1222,74.1482 46.7889,74.1482 49.5,71.5C 49.2852,73.1788 49.9519,74.1788 51.5,74.5C 49.8567,77.4947 47.5233,78.1614 44.5,76.5C 42.0472,75.2155 39.5472,75.2155 37,76.5C 34.0296,75.978 33.1963,74.478 34.5,72C 36.8098,71.5034 39.1432,71.3367 41.5,71.5 Z"/></g>
<g><path style="opacity:0.749" fill="#4c484f" d="M 101.5,71.5 C 101.5,72.5 101.5,73.5 101.5,74.5C 101.443,75.609 101.11,76.609 100.5,77.5C 98.8828,78.038 97.2161,78.3713 95.5,78.5C 96.8334,75.5067 98.8334,73.1734 101.5,71.5 Z"/></g>
<g><path style="opacity:1" fill="#dcdbdd" d="M 81.5,73.5 C 85.0956,73.6116 88.4289,74.945 91.5,77.5C 88.272,78.4137 84.9387,78.7471 81.5,78.5C 79.1561,78.0603 77.1561,77.0603 75.5,75.5C 77.8984,75.7406 79.8984,75.0739 81.5,73.5 Z"/></g>
<g><path style="opacity:1" fill="#d9d9d6" d="M 85.5,71.5 C 88.658,72.8758 91.9913,73.5424 95.5,73.5C 94.7659,74.7079 94.4326,76.0413 94.5,77.5C 93.5,77.5 92.5,77.5 91.5,77.5C 88.4289,74.945 85.0956,73.6116 81.5,73.5C 82.5137,72.3263 83.847,71.6596 85.5,71.5 Z"/></g>
<g><path style="opacity:1" fill="#dbdcd9" d="M 32.5,67.5 C 35.5046,69.2994 38.838,69.9661 42.5,69.5C 42.1667,70.1667 41.8333,70.8333 41.5,71.5C 39.1432,71.3367 36.8098,71.5034 34.5,72C 33.1963,74.478 34.0296,75.978 37,76.5C 39.5472,75.2155 42.0472,75.2155 44.5,76.5C 44.2178,77.7777 43.5511,78.7777 42.5,79.5C 38.8648,78.8857 35.1981,78.5524 31.5,78.5C 31.5,78.1667 31.5,77.8333 31.5,77.5C 30.9254,74.2223 31.2588,70.889 32.5,67.5 Z"/></g>
<g><path style="opacity:1" fill="#bab5bc" d="M 23.5,29.5 C 23.5,29.8333 23.5,30.1667 23.5,30.5C 23.5,39.1667 23.5,47.8333 23.5,56.5C 23.5,58.8333 23.5,61.1667 23.5,63.5C 23.7578,69.665 26.4245,74.3317 31.5,77.5C 31.5,77.8333 31.5,78.1667 31.5,78.5C 31.1583,79.3382 30.4916,79.6716 29.5,79.5C 27.6159,79.2882 26.2826,78.2882 25.5,76.5C 24.6143,77.325 24.281,78.325 24.5,79.5C 23.7161,77.9706 22.7161,76.3039 21.5,74.5C 22.5862,74.38 23.2528,73.7133 23.5,72.5C 22.192,58.0201 22.192,43.6867 23.5,29.5 Z"/></g>
<g><path style="opacity:1" fill="#dcdcda" d="M 55.5,70.5 C 55.5,71.8333 55.5,73.1667 55.5,74.5C 54.9569,74.56 54.6236,74.8933 54.5,75.5C 55.376,76.2508 56.376,76.7508 57.5,77C 55.563,77.1216 54.2297,77.955 53.5,79.5C 52.4168,79.5394 51.4168,79.8728 50.5,80.5C 49.5344,82.396 49.2011,84.396 49.5,86.5C 48.2436,86.9038 47.0769,87.5705 46,88.5C 45.5,88.1667 45,87.8333 44.5,87.5C 43.7914,85.0002 43.458,82.6669 43.5,80.5C 42.8333,80.5 42.5,80.1667 42.5,79.5C 43.5511,78.7777 44.2178,77.7777 44.5,76.5C 47.5233,78.1614 49.8567,77.4947 51.5,74.5C 52.9348,73.2102 53.9348,71.5435 54.5,69.5C 55.1067,69.6236 55.44,69.9569 55.5,70.5 Z"/></g>
<g><path style="opacity:1" fill="#dcdbdc" d="M 55.5,74.5 C 58.8333,74.5 62.1667,74.5 65.5,74.5C 63.1663,75.1237 60.8329,75.957 58.5,77C 61.1022,78.0148 62.9355,79.8482 64,82.5C 64.9487,80.9069 66.1154,79.5736 67.5,78.5C 67.3775,81.2921 66.0442,83.2921 63.5,84.5C 63.2172,83.7109 62.7172,83.0442 62,82.5C 59.9737,82.9147 58.4737,83.9147 57.5,85.5C 56.5,84.8333 55.5,84.1667 54.5,83.5C 54.7678,81.901 54.4345,80.5676 53.5,79.5C 54.2297,77.955 55.563,77.1216 57.5,77C 56.376,76.7508 55.376,76.2508 54.5,75.5C 54.6236,74.8933 54.9569,74.56 55.5,74.5 Z"/></g>
<g><path style="opacity:1" fill="#e0dedb" d="M 65.5,74.5 C 65.8333,74.5 66.1667,74.5 66.5,74.5C 66.8333,74.5 67.1667,74.5 67.5,74.5C 68.5063,74.9377 68.5063,75.6043 67.5,76.5C 67.5,77.1667 67.5,77.8333 67.5,78.5C 66.1154,79.5736 64.9487,80.9069 64,82.5C 62.9355,79.8482 61.1022,78.0148 58.5,77C 60.8329,75.957 63.1663,75.1237 65.5,74.5 Z"/></g>
<g><path style="opacity:1" fill="#dcddda" d="M 74.5,71.5 C 74.4606,72.5832 74.1272,73.5832 73.5,74.5C 73.9569,75.2975 74.6236,75.6309 75.5,75.5C 77.1561,77.0603 79.1561,78.0603 81.5,78.5C 80.1667,78.8333 78.8333,79.1667 77.5,79.5C 75.5288,80.9007 74.5288,82.5674 74.5,84.5C 72.7869,84.1207 71.7869,83.1207 71.5,81.5C 71.1667,80.8333 70.8333,80.1667 70.5,79.5C 71.5384,76.6551 72.8718,73.9884 74.5,71.5 Z"/></g>
<g><path style="opacity:1" fill="#c3bdc4" d="M 97.5,69.5 C 99.153,69.6596 100.486,70.3263 101.5,71.5C 98.8334,73.1734 96.8334,75.5067 95.5,78.5C 90.3419,80.8366 85.0086,82.17 79.5,82.5C 78.8333,86.1667 78.1667,89.8333 77.5,93.5C 77.5,88.8333 77.5,84.1667 77.5,79.5C 78.8333,79.1667 80.1667,78.8333 81.5,78.5C 84.9387,78.7471 88.272,78.4137 91.5,77.5C 92.5,77.5 93.5,77.5 94.5,77.5C 94.4326,76.0413 94.7659,74.7079 95.5,73.5C 98.4307,73.0897 99.0974,71.7564 97.5,69.5 Z"/></g>
<g><path style="opacity:0.82" fill="#5c575f" d="M 29.5,79.5 C 29.8333,80.5 30.5,81.1667 31.5,81.5C 32.5903,82.8571 33.9236,83.8571 35.5,84.5C 34.8333,84.5 34.1667,84.5 33.5,84.5C 29.4532,84.6448 26.4532,82.9781 24.5,79.5C 24.281,78.325 24.6143,77.325 25.5,76.5C 26.2826,78.2882 27.6159,79.2882 29.5,79.5 Z"/></g>
<g><path style="opacity:1" fill="#bcb7c0" d="M 31.5,78.5 C 35.1981,78.5524 38.8648,78.8857 42.5,79.5C 42.5,80.1667 42.8333,80.5 43.5,80.5C 42.6314,82.717 42.298,85.0504 42.5,87.5C 42.5,89.5 42.5,91.5 42.5,93.5C 41.5166,89.7016 41.1832,85.7016 41.5,81.5C 38.1667,81.5 34.8333,81.5 31.5,81.5C 30.5,81.1667 29.8333,80.5 29.5,79.5C 30.4916,79.6716 31.1583,79.3382 31.5,78.5 Z"/></g>
<g><path style="opacity:1" fill="#e2e0e3" d="M 67.5,76.5 C 68.2389,76.369 68.9056,76.5357 69.5,77C 68.4238,78.7261 68.2571,80.5594 69,82.5C 69.0826,80.4936 69.5826,79.4936 70.5,79.5C 70.8333,80.1667 71.1667,80.8333 71.5,81.5C 70.596,82.209 70.2627,83.209 70.5,84.5C 70.1667,84.5 69.8333,84.5 69.5,84.5C 68.4583,83.2089 67.2917,83.2089 66,84.5C 65.5014,88.1516 65.3347,91.8183 65.5,95.5C 64.7698,91.9394 64.1031,88.2728 63.5,84.5C 66.0442,83.2921 67.3775,81.2921 67.5,78.5C 67.5,77.8333 67.5,77.1667 67.5,76.5 Z"/></g>
<g><path style="opacity:0.906" fill="#625b64" d="M 100.5,77.5 C 97.729,81.8872 93.729,84.2205 88.5,84.5C 87.1667,84.5 85.8333,84.5 84.5,84.5C 83.4479,82.744 81.7812,82.0773 79.5,82.5C 85.0086,82.17 90.3419,80.8366 95.5,78.5C 97.2161,78.3713 98.8828,78.038 100.5,77.5 Z"/></g>
<g><path style="opacity:1" fill="#dedae0" d="M 53.5,79.5 C 54.4345,80.5676 54.7678,81.901 54.5,83.5C 53.1779,83.33 52.0113,83.6634 51,84.5C 50.501,88.8206 50.3343,93.1539 50.5,97.5C 48.8333,97.5 47.1667,97.5 45.5,97.5C 44.8333,96.1667 43.8333,95.1667 42.5,94.5C 42.5,94.1667 42.5,93.8333 42.5,93.5C 42.5,91.5 42.5,89.5 42.5,87.5C 44.2338,89.0904 45.4005,91.0904 46,93.5C 47.0113,94.3366 48.1779,94.67 49.5,94.5C 49.5,91.8333 49.5,89.1667 49.5,86.5C 49.2011,84.396 49.5344,82.396 50.5,80.5C 51.4168,79.8728 52.4168,79.5394 53.5,79.5 Z"/></g>
<g><path style="opacity:1" fill="#dcdcdd" d="M 77.5,79.5 C 77.5,84.1667 77.5,88.8333 77.5,93.5C 77.5,94.1667 77.1667,94.5 76.5,94.5C 73.306,94.8244 72.306,93.6578 73.5,91C 72.8681,88.5848 71.8681,86.4181 70.5,84.5C 70.2627,83.209 70.596,82.209 71.5,81.5C 71.7869,83.1207 72.7869,84.1207 74.5,84.5C 74.5288,82.5674 75.5288,80.9007 77.5,79.5 Z"/></g>
<g><path style="opacity:0.349" fill="#b6b1b9" d="M 33.5,84.5 C 34.1667,84.5 34.8333,84.5 35.5,84.5C 36.8333,84.5 38.1667,84.5 39.5,84.5C 39.244,88.2693 39.5773,91.9359 40.5,95.5C 40.5,95.8333 40.5,96.1667 40.5,96.5C 39.8826,96.3893 39.3826,96.056 39,95.5C 38.5017,92.1832 38.335,88.8499 38.5,85.5C 36.5853,85.7845 34.9187,85.4511 33.5,84.5 Z"/></g>
<g><path style="opacity:1" fill="#433d48" d="M 61.5,97.5 C 59.3647,99.369 56.6981,100.036 53.5,99.5C 55.3691,98.8354 57.3691,98.1687 59.5,97.5C 59.3764,96.8933 59.0431,96.56 58.5,96.5C 58.5,92.5 58.5,88.5 58.5,84.5C 59.5,84.5 60.5,84.5 61.5,84.5C 61.5,88.8333 61.5,93.1667 61.5,97.5 Z"/></g>
<g><path style="opacity:1" fill="#463f48" d="M 31.5,81.5 C 34.8333,81.5 38.1667,81.5 41.5,81.5C 41.1832,85.7016 41.5166,89.7016 42.5,93.5C 42.5,93.8333 42.5,94.1667 42.5,94.5C 41.8333,94.8333 41.1667,95.1667 40.5,95.5C 39.5773,91.9359 39.244,88.2693 39.5,84.5C 38.1667,84.5 36.8333,84.5 35.5,84.5C 33.9236,83.8571 32.5903,82.8571 31.5,81.5 Z"/></g>
<g><path style="opacity:1" fill="#dedddf" d="M 43.5,80.5 C 43.458,82.6669 43.7914,85.0002 44.5,87.5C 45,87.8333 45.5,88.1667 46,88.5C 47.0769,87.5705 48.2436,86.9038 49.5,86.5C 49.5,89.1667 49.5,91.8333 49.5,94.5C 48.1779,94.67 47.0113,94.3366 46,93.5C 45.4005,91.0904 44.2338,89.0904 42.5,87.5C 42.298,85.0504 42.6314,82.717 43.5,80.5 Z"/></g>
<g><path style="opacity:1" fill="#ccc6d1" d="M 63.5,84.5 C 64.1031,88.2728 64.7698,91.9394 65.5,95.5C 65.5,96.1667 65.5,96.8333 65.5,97.5C 64.1667,97.5 62.8333,97.5 61.5,97.5C 61.5,93.1667 61.5,88.8333 61.5,84.5C 60.5,84.5 59.5,84.5 58.5,84.5C 58.5,88.5 58.5,92.5 58.5,96.5C 58.5,97.1667 58.1667,97.5 57.5,97.5C 57.5,93.5 57.5,89.5 57.5,85.5C 58.4737,83.9147 59.9737,82.9147 62,82.5C 62.7172,83.0442 63.2172,83.7109 63.5,84.5 Z"/></g>
<g><path style="opacity:1" fill="#dad5dd" d="M 69.5,84.5 C 69.8333,84.5 70.1667,84.5 70.5,84.5C 71.8681,86.4181 72.8681,88.5848 73.5,91C 72.306,93.6578 73.306,94.8244 76.5,94.5C 76.5,95.1667 76.5,95.8333 76.5,96.5C 74.2362,97.2186 71.9029,97.552 69.5,97.5C 69.5,93.1667 69.5,88.8333 69.5,84.5 Z"/></g>
<g><path style="opacity:1" fill="#ded9e1" d="M 54.5,83.5 C 55.5,84.1667 56.5,84.8333 57.5,85.5C 57.5,89.5 57.5,93.5 57.5,97.5C 56.5,97.5 55.5,97.5 54.5,97.5C 54.5,92.8333 54.5,88.1667 54.5,83.5 Z"/></g>
<g><path style="opacity:0.06" fill="#e4e1e4" d="M 84.5,84.5 C 85.8333,84.5 87.1667,84.5 88.5,84.5C 86.7354,85.4614 84.7354,85.7947 82.5,85.5C 82.6646,88.5184 82.498,91.5184 82,94.5C 81.6232,95.9423 80.7899,96.9423 79.5,97.5C 81.1834,93.3642 81.8501,89.0309 81.5,84.5C 82.5,84.5 83.5,84.5 84.5,84.5 Z"/></g>
<g><path style="opacity:0.827" fill="#544e57" d="M 79.5,82.5 C 81.7812,82.0773 83.4479,82.744 84.5,84.5C 83.5,84.5 82.5,84.5 81.5,84.5C 81.8501,89.0309 81.1834,93.3642 79.5,97.5C 79.5,98.1667 79.1667,98.5 78.5,98.5C 78.8693,96.0065 78.2027,95.3398 76.5,96.5C 76.5,95.8333 76.5,95.1667 76.5,94.5C 77.1667,94.5 77.5,94.1667 77.5,93.5C 78.1667,89.8333 78.8333,86.1667 79.5,82.5 Z"/></g>
<g><path style="opacity:0.976" fill="#564f5a" d="M 54.5,83.5 C 54.5,88.1667 54.5,92.8333 54.5,97.5C 55.5,97.5 56.5,97.5 57.5,97.5C 58.1667,97.5 58.5,97.1667 58.5,96.5C 59.0431,96.56 59.3764,96.8933 59.5,97.5C 57.3691,98.1687 55.3691,98.8354 53.5,99.5C 49.9521,99.9051 46.6188,99.4051 43.5,98C 44.0944,97.5357 44.7611,97.369 45.5,97.5C 47.1667,97.5 48.8333,97.5 50.5,97.5C 50.3343,93.1539 50.501,88.8206 51,84.5C 52.0113,83.6634 53.1779,83.33 54.5,83.5 Z"/></g>
<g><path style="opacity:0.965" fill="#514955" d="M 69.5,84.5 C 69.5,88.8333 69.5,93.1667 69.5,97.5C 71.9029,97.552 74.2362,97.2186 76.5,96.5C 78.2027,95.3398 78.8693,96.0065 78.5,98.5C 76.8828,99.038 75.2161,99.3713 73.5,99.5C 69.8183,99.6653 66.1516,99.4986 62.5,99C 63.7375,98.7679 64.7375,98.2679 65.5,97.5C 65.5,96.8333 65.5,96.1667 65.5,95.5C 65.3347,91.8183 65.5014,88.1516 66,84.5C 67.2917,83.2089 68.4583,83.2089 69.5,84.5 Z"/></g>
<g><path style="opacity:0.686" fill="#7a747c" d="M 42.5,94.5 C 43.8333,95.1667 44.8333,96.1667 45.5,97.5C 44.7611,97.369 44.0944,97.5357 43.5,98C 46.6188,99.4051 49.9521,99.9051 53.5,99.5C 56.6981,100.036 59.3647,99.369 61.5,97.5C 62.8333,97.5 64.1667,97.5 65.5,97.5C 64.7375,98.2679 63.7375,98.7679 62.5,99C 66.1516,99.4986 69.8183,99.6653 73.5,99.5C 73.5,99.8333 73.5,100.167 73.5,100.5C 65.2953,101.006 57.1286,101.34 49,101.5C 45.2317,101.327 42.3984,99.6606 40.5,96.5C 40.5,96.1667 40.5,95.8333 40.5,95.5C 41.1667,95.1667 41.8333,94.8333 42.5,94.5 Z"/></g>
<g><path style="opacity:0.016" fill="#e3dfe4" d="M 78.5,98.5 C 77.3646,100.213 75.698,100.88 73.5,100.5C 73.5,100.167 73.5,99.8333 73.5,99.5C 75.2161,99.3713 76.8828,99.038 78.5,98.5 Z"/></g>
</svg>
