<?xml version="1.0" encoding="UTF-8"?>
<!DOCTYPE svg PUBLIC "-//W3C//DTD SVG 1.1//EN" "http://www.w3.org/Graphics/SVG/1.1/DTD/svg11.dtd">
<svg xmlns="http://www.w3.org/2000/svg" version="1.1" width="139px" height="125px" style="shape-rendering:geometricPrecision; text-rendering:geometricPrecision; image-rendering:optimizeQuality; fill-rule:evenodd; clip-rule:evenodd" xmlns:xlink="http://www.w3.org/1999/xlink">
<g><path style="opacity:0.013" fill="#e5dcd7" d="M 73.5,17.5 C 73.5,17.1667 73.5,16.8333 73.5,16.5C 78.9116,16.7908 84.2449,17.6241 89.5,19C 91.685,20.2468 93.0183,22.0801 93.5,24.5C 91.8081,34.2957 89.9748,44.2957 88,54.5C 87.2432,56.3146 86.4098,57.9812 85.5,59.5C 86.8218,49.4171 88.6551,39.4171 91,29.5C 91.6667,27.1667 91.6667,24.8333 91,22.5C 85.4325,19.9222 79.5991,18.2555 73.5,17.5 Z"/></g>
<g><path style="opacity:1" fill="#4c342c" d="M 73.5,16.5 C 73.5,16.8333 73.5,17.1667 73.5,17.5C 72.5084,17.3284 71.8417,17.6618 71.5,18.5C 70.8333,18.5 70.1667,18.5 69.5,18.5C 67.5891,18.5743 66.4224,19.5743 66,21.5C 64.0501,28.0206 61.7168,34.354 59,40.5C 58.5172,39.552 58.3505,38.552 58.5,37.5C 60.354,30.7575 62.5207,24.0909 65,17.5C 67.5851,15.2645 70.4185,14.9312 73.5,16.5 Z"/></g>
<g><path style="opacity:1" fill="#ecc6b3" d="M 69.5,18.5 C 63.2439,34.8059 57.5773,51.4726 52.5,68.5C 51.7025,68.0431 51.3691,67.3764 51.5,66.5C 51.5,65.8333 51.5,65.1667 51.5,64.5C 53.7412,59.0995 55.4078,53.4329 56.5,47.5C 57.2485,46.469 57.9152,45.3024 58.5,44C 57.9056,43.5357 57.2389,43.369 56.5,43.5C 56.8751,41.3024 57.5418,39.3024 58.5,37.5C 58.3505,38.552 58.5172,39.552 59,40.5C 61.7168,34.354 64.0501,28.0206 66,21.5C 66.4224,19.5743 67.5891,18.5743 69.5,18.5 Z"/></g>
<g><path style="opacity:1" fill="#461712" d="M 71.5,18.5 C 71.8417,17.6618 72.5084,17.3284 73.5,17.5C 79.5991,18.2555 85.4325,19.9222 91,22.5C 91.6667,24.8333 91.6667,27.1667 91,29.5C 88.6551,39.4171 86.8218,49.4171 85.5,59.5C 84.2154,62.5885 83.5488,65.9219 83.5,69.5C 83.5,69.8333 83.5,70.1667 83.5,70.5C 82.5028,70.5299 81.8361,70.0299 81.5,69C 82.2335,67.2341 82.5668,65.4008 82.5,63.5C 84.1517,58.6591 84.8183,53.6591 84.5,48.5C 87.7184,40.5665 89.2184,32.2332 89,23.5C 88.6174,22.944 88.1174,22.6107 87.5,22.5C 82.1804,21.037 76.847,19.7036 71.5,18.5 Z"/></g>
<g><path style="opacity:1" fill="#fcaf92" d="M 87.5,24.5 C 85.681,32.3851 84.681,40.3851 84.5,48.5C 84.8183,53.6591 84.1517,58.6591 82.5,63.5C 81.2749,64.1522 80.6083,65.3189 80.5,67C 80.0828,69.4979 79.7495,71.9979 79.5,74.5C 77.5,74.5 75.5,74.5 73.5,74.5C 68.6178,70.6987 62.9511,68.6987 56.5,68.5C 57.8057,60.7406 59.639,53.074 62,45.5C 63.6437,42.6894 65.8103,40.356 68.5,38.5C 65.8478,32.2952 67.8478,29.1285 74.5,29C 77.7736,24.8862 82.107,23.3862 87.5,24.5 Z"/></g>
<g><path style="opacity:1" fill="#d8826f" d="M 87.5,22.5 C 88.1174,22.6107 88.6174,22.944 89,23.5C 89.2184,32.2332 87.7184,40.5665 84.5,48.5C 84.681,40.3851 85.681,32.3851 87.5,24.5C 87.5,23.8333 87.5,23.1667 87.5,22.5 Z"/></g>
<g><path style="opacity:0.918" fill="#261510" d="M 56.5,43.5 C 57.2389,43.369 57.9056,43.5357 58.5,44C 57.9152,45.3024 57.2485,46.469 56.5,47.5C 56.5,46.1667 56.5,44.8333 56.5,43.5 Z"/></g>
<g><path style="opacity:1" fill="#5d4942" d="M 56.5,43.5 C 56.5,44.8333 56.5,46.1667 56.5,47.5C 55.4078,53.4329 53.7412,59.0995 51.5,64.5C 51.631,63.7611 51.4643,63.0944 51,62.5C 50.6264,64.4913 49.793,66.158 48.5,67.5C 50.5889,59.2333 53.2556,51.2333 56.5,43.5 Z"/></g>
<g><path style="opacity:1" fill="#f2b197" d="M 69.5,18.5 C 70.1667,18.5 70.8333,18.5 71.5,18.5C 76.847,19.7036 82.1804,21.037 87.5,22.5C 87.5,23.1667 87.5,23.8333 87.5,24.5C 82.107,23.3862 77.7736,24.8862 74.5,29C 67.8478,29.1285 65.8478,32.2952 68.5,38.5C 65.8103,40.356 63.6437,42.6894 62,45.5C 59.639,53.074 57.8057,60.7406 56.5,68.5C 62.9511,68.6987 68.6178,70.6987 73.5,74.5C 65.8283,72.9427 58.1617,71.276 50.5,69.5C 50.2627,68.209 50.596,67.209 51.5,66.5C 51.3691,67.3764 51.7025,68.0431 52.5,68.5C 57.5773,51.4726 63.2439,34.8059 69.5,18.5 Z"/></g>
<g><path style="opacity:0.373" fill="#a78d84" d="M 85.5,59.5 C 85.678,63.1224 85.0114,66.4557 83.5,69.5C 83.5488,65.9219 84.2154,62.5885 85.5,59.5 Z"/></g>
<g><path style="opacity:0.278" fill="#cab8b6" d="M 48.5,67.5 C 49.6298,69.3146 50.2964,71.3146 50.5,73.5C 49.6851,72.5707 48.8518,71.5707 48,70.5C 47.2599,69.2506 47.4265,68.2506 48.5,67.5 Z"/></g>
<g><path style="opacity:1" fill="#ce8977" d="M 82.5,63.5 C 82.5668,65.4008 82.2335,67.2341 81.5,69C 81.8361,70.0299 82.5028,70.5299 83.5,70.5C 83.7845,72.4147 83.4511,74.0813 82.5,75.5C 82.6309,74.6236 82.2975,73.9569 81.5,73.5C 80.6143,74.325 80.281,75.325 80.5,76.5C 77.9327,76.2785 75.5994,75.6118 73.5,74.5C 75.5,74.5 77.5,74.5 79.5,74.5C 79.7495,71.9979 80.0828,69.4979 80.5,67C 80.6083,65.3189 81.2749,64.1522 82.5,63.5 Z"/></g>
<g><path style="opacity:0.059" fill="#e0d1cf" d="M 80.5,78.5 C 80.1667,79.5 79.5,80.1667 78.5,80.5C 78.5,79.1667 79.1667,78.5 80.5,78.5 Z"/></g>
<g><path style="opacity:1" fill="#5d4135" d="M 77.5,80.5 C 73.3298,81.9914 69.9965,84.6581 67.5,88.5C 67.1667,88.5 66.8333,88.5 66.5,88.5C 66.44,87.9569 66.1067,87.6236 65.5,87.5C 64.4174,91.7091 61.7507,93.7091 57.5,93.5C 58.6987,87.6243 58.6987,81.9576 57.5,76.5C 64.0351,78.4552 70.7018,79.7886 77.5,80.5 Z"/></g>
<g><path style="opacity:0.161" fill="#cec1bc" d="M 54.5,78.5 C 55.8366,80.3495 56.5033,82.5161 56.5,85C 55.7625,89.1367 55.4292,93.3034 55.5,97.5C 55.5,98.1667 55.5,98.8333 55.5,99.5C 55.1667,99.5 54.8333,99.5 54.5,99.5C 54.7245,92.6055 54.7245,85.6055 54.5,78.5 Z"/></g>
<g><path style="opacity:1" fill="#422319" d="M 51.5,64.5 C 51.5,65.1667 51.5,65.8333 51.5,66.5C 50.596,67.209 50.2627,68.209 50.5,69.5C 58.1617,71.276 65.8283,72.9427 73.5,74.5C 75.5994,75.6118 77.9327,76.2785 80.5,76.5C 80.281,75.325 80.6143,74.325 81.5,73.5C 82.2975,73.9569 82.6309,74.6236 82.5,75.5C 82.7148,77.1788 82.0481,78.1788 80.5,78.5C 79.1667,78.5 78.5,79.1667 78.5,80.5C 78.1667,80.5 77.8333,80.5 77.5,80.5C 70.7018,79.7886 64.0351,78.4552 57.5,76.5C 58.6987,81.9576 58.6987,87.6243 57.5,93.5C 61.7507,93.7091 64.4174,91.7091 65.5,87.5C 66.1067,87.6236 66.44,87.9569 66.5,88.5C 65.1113,92.9434 63.4447,97.2767 61.5,101.5C 58.6122,102.01 56.2789,101.344 54.5,99.5C 54.8333,99.5 55.1667,99.5 55.5,99.5C 57.1667,99.5 58.8333,99.5 60.5,99.5C 60.5,98.1667 60.5,96.8333 60.5,95.5C 58.6776,95.8308 57.0109,96.4975 55.5,97.5C 55.4292,93.3034 55.7625,89.1367 56.5,85C 56.5033,82.5161 55.8366,80.3495 54.5,78.5C 53.5161,76.5201 52.1827,74.8534 50.5,73.5C 50.2964,71.3146 49.6298,69.3146 48.5,67.5C 49.793,66.158 50.6264,64.4913 51,62.5C 51.4643,63.0944 51.631,63.7611 51.5,64.5 Z"/></g>
<g><path style="opacity:1" fill="#c88c7f" d="M 55.5,99.5 C 55.5,98.8333 55.5,98.1667 55.5,97.5C 57.0109,96.4975 58.6776,95.8308 60.5,95.5C 60.5,96.8333 60.5,98.1667 60.5,99.5C 58.8333,99.5 57.1667,99.5 55.5,99.5 Z"/></g>
<g><path style="opacity:0.018" fill="#e7e1e0" d="M 66.5,88.5 C 66.8333,88.5 67.1667,88.5 67.5,88.5C 67.7283,94.0161 65.7283,98.3494 61.5,101.5C 63.4447,97.2767 65.1113,92.9434 66.5,88.5 Z"/></g>
</svg>
